<?xml version="1.0" standalone="no"?>
<!DOCTYPE svg PUBLIC "-//W3C//DTD SVG 1.1//EN" "http://www.w3.org/Graphics/SVG/1.1/DTD/svg11.dtd" >
<!--
2013-9-30: Created.
-->
<svg>
<metadata>
Created by iconfont
</metadata>
<defs>

<font id="iconfont" horiz-adv-x="1024" >
  <font-face
    font-family="iconfont"
    font-weight="500"
    font-stretch="normal"
    units-per-em="1024"
    ascent="896"
    descent="-128"
  />
    <missing-glyph />
    
    <glyph glyph-name="baobiaobiaoweiguanli" unicode="&#59040;" d="M569.6 780.8V896H454.4v-115.2H0v-115.2h57.6v-576H416L192-83.20000000000005l38.4-44.8 275.2 224 275.2-224 38.4 44.8L601.6 96h364.8V672h57.6V780.8H569.6z m339.2-627.2H115.2v512h793.6v-512zM281.6 268.79999999999995V441.6h172.8c0 83.2-70.4 147.2-153.6 147.2-83.2 0-153.6-70.4-153.6-153.6 6.4-83.2 51.2-166.4 134.4-166.4z m57.6-57.6c89.6 0 172.8 89.6 172.8 172.8H339.2v-172.8z m454.4 345.6H627.2v-57.6H800v57.6z m0-115.2H627.2V384H800v57.6z m0-115.2H627.2v-57.6H800v57.6z"  horiz-adv-x="1024" />

    
    <glyph glyph-name="jieshi" unicode="&#58948;" d="M571.823158 593.219368A56.912842 56.912842 0 0 0 514.694737 650.24c0 31.528421 25.492211 57.020632 57.020631 57.020632 31.582316 0 57.020632-25.492211 57.020632-57.020632a56.212211 56.212211 0 0 0-57.020632-57.020632z m32.067368-115.658105l-64.781473-353.711158a20.48 20.48 0 0 1 5.551158-18.270316 27.648 27.648 0 0 1 19.402105-7.760842c8.838737 0 16.599579-6.629053 16.599579-14.389894 0-7.760842-7.221895-14.389895-16.653474-14.389895H490.442105c-19.348211 0-37.079579 7.221895-49.798737 20.48a54.433684 54.433684 0 0 0-14.928842 46.511158L490.388211 489.094737a20.48 20.48 0 0 1-5.497264 18.32421 27.648 27.648 0 0 1-19.402105 7.706948c-8.838737 0-16.599579 6.629053-16.599579 14.389894 0 7.760842 7.221895 14.389895 16.599579 14.389895h73.620211c19.402105 0 37.079579-7.168 49.852631-20.48a53.355789 53.355789 0 0 0 14.928842-45.918316zM512-128C229.699368-128 0 101.699368 0 384S229.699368 896 512 896 1024 666.300632 1024 384 794.300632-128 512-128z m0 968.650105c-251.850105 0-456.650105-204.8-456.650105-456.650105 0-251.850105 204.8-456.650105 456.650105-456.650105 251.850105 0 456.650105 204.8 456.650105 456.650105 0 251.850105-204.8 456.650105-456.650105 456.650105z"  horiz-adv-x="1024" />

    
    <glyph glyph-name="gengduo1" unicode="&#58893;" d="M839.16653443 603.47964477H184.83346557C160.7437439 603.47964477 141.21142578 623.01113891 141.21142578 647.10168458c0 24.09054565 19.53231812 43.62203979 43.62203979 43.62203979h654.33306885c24.08972168 0 43.62203979-19.53231812 43.6220398-43.6220398 0-24.09054565-19.53231812-43.62203979-43.6220398-43.6220398zM621.05633545 340.37219238H184.83346557C160.7437439 340.37219238 141.21142578 359.9045105 141.21142578 383.99423218000004c0 24.09054565 19.53231812 43.62203979 43.62203979 43.62203979h436.22286988c24.08972168 0 43.62121583-19.53231812 43.62121582-43.62203979 0-24.08972168-19.53149414-43.62203979-43.62121582-43.6220398z m130.86611939-263.09591675H184.83346557c-24.08972168 0-43.62203979 19.53149414-43.62203979 43.62121583 0 24.09054565 19.53231812 43.62203979 43.6220398 43.62203979h567.08898926c24.08972168 0 43.62121583-19.53149414 43.62121581-43.62203979 0-24.08972168-19.53149414-43.62121583-43.62121581-43.62121583z"  horiz-adv-x="1024" />

    
    <glyph glyph-name="biyanai" unicode="&#58905;" d="M449.2375 277.25a112.0375 112.0375 0 0 1-61.1625 20.2c-21.9625-5.55-68.0875-22.1625-81.55-27.0625A289.075 289.075 0 0 1 317.25 217.25a380.3125 380.3125 0 0 1 90.7375-6.825 14.2375 14.2375 0 0 0 14.225-12.2375l10.8125-77.3625h51.025a547.7 547.7 0 0 1-3.2375 124.3 70.8625 70.8625 0 0 1-31.575 32.125zM601.9875 372.325c-3.9875 4.8375-13.0875 4.8375-39.825-11.6625a130.5875 130.5875 0 0 0-66.25-25.325 85.35 85.35 0 0 0-45.5125 10.8125 52.575 52.575 0 0 1-41.5375 4.55 316.25 316.25 0 0 1-97.8375-37.2625v-11.6625c20.1875 7.4 52.05 18.75 70.25 23.325a132 132 0 0 0 83.0625-23.6 94.175 94.175 0 0 0 44.0875-50.6375 493.2125 493.2125 0 0 0 3.9875-130h45.7875v11.9375a968.1 968.1 0 0 0-9.1 156.1625 85.3375 85.3375 0 0 0 37.5 59.175c20.7875 17.8625 19.3625 19.35 15.3875 24.1875zM512 896C229.225 896 0 666.775 0 384s229.225-512 512-512 512 229.225 512 512S794.775 896 512 896z m241.5875-595.075c-58.875-90.45-65.1375-167.5-58.875-190.575a14.2125 14.2125 0 0 0-2.275-12.5 14.4875 14.4875 0 0 0-11.375-5.4125H420.7875a13.95 13.95 0 0 0-14.225 12.2375l-9.6625 77.3625c-35.8375 0-87.0375 2.275-100.7 15.925a14.35 14.35 0 0 0-3.75 6.25 363.075 363.075 0 0 0-13.925 130.275l-44.1 32.425a14.2375 14.2375 0 0 0-2.275 20.775l64.575 73.3875a280.725 280.725 0 0 0 100.125 172.3625 243.975 243.975 0 0 0 194.55 35.275c118.3375-21.3375 167.2625-81.925 187.5-128.575a275.2875 275.2875 0 0 0-25.3125-239.2125zM586.3375 640.8375A215.5875 215.5875 0 0 1 413.75 610.4a257.9625 257.9625 0 0 1-89.325-157.3 12.7125 12.7125 0 0 0-3.4125-7.675l-56.8875-64.85 38.975-28.45a13.925 13.925 0 0 0 4.7625-8.2 348.4875 348.4875 0 0 0 94.7875 33.5125 80.1625 80.1625 0 0 0 58.875-7.3875 61.0125 61.0125 0 0 1 32.7125-7.6875 106.3875 106.3875 0 0 1 51.25 21.05c24.175 14.7875 53.75 33 76.8 5.6875s-1.9875-49.4875-18.4875-63.75-28.4375-23.6125-28.4375-38.6875a953.9875 953.9875 0 0 1 9.6625-149.6125q1.425-8.0625 2.0625-16.25h77.8625A352.7375 352.7375 0 0 0 730 316.5625a249.1625 249.1625 0 0 1 23.05 212.2c-25.625 58.8875-81.6625 96.7125-166.7125 112.075z"  horiz-adv-x="1024" />

    
    <glyph glyph-name="feiai2" unicode="&#58906;" d="M649.258667 526.677333c-19.541333 0-39.850667-28.672-52.352-100.608 14.805333-22.272 37.674667-41.258667 72.789333-54.826666a14.464 14.464 0 0 0 8.533333-18.56 14.805333 14.805333 0 0 0-14.592-8.533334 15.488 15.488 0 0 0-5.248 0 186.282667 186.282667 0 0 0-66.986666 42.069334c-1.706667-15.36-3.114667-32.128-4.266667-50.432a278.101333 278.101333 0 0 1 81.066667-36.906667 14.421333 14.421333 0 0 0-4.693334-28.416h-3.2a307.2 307.2 0 0 0-74.794666 30.805333c-0.554667-17.066667-0.853333-35.029333-0.853334-54.272a65.962667 65.962667 0 0 1 14.336-48.469333C614.4 183.466667 644.266667 183.466667 676.394667 183.466667l4.693333-0.298667h25.6a56.917333 56.917333 0 0 0 44.245333-19.882667 24.277333 24.277333 0 0 1 24.234667-9.557333c6.144 0 17.536 21.717333 17.536 74.24-0.042667 121.898667-56.405333 298.709333-143.445333 298.709333zM438.912 300.928a305.450667 305.450667 0 0 0-74.112-30.336l-4.266667-0.298667a14.634667 14.634667 0 0 0-14.336 11.050667 14.805333 14.805333 0 0 0 10.837334 17.664 271.658667 271.658667 0 0 1 80.554666 35.754667c-1.024 19.029333-2.474667 36.394667-4.266666 52.266666a186.325333 186.325333 0 0 0-67.328-42.666666 16.213333 16.213333 0 0 0-5.546667-0.298667 14.933333 14.933333 0 0 0-13.738667 9.258667 14.506667 14.506667 0 0 0 8.533334 18.602666c35.114667 13.568 57.898667 32.597333 72.533333 54.826667-12.288 71.338667-32.469333 100.224-51.882667 100.224h-1.152c-87.594667 0-143.104-176.896-143.402666-298.666667 0-52.522667 11.392-74.282667 17.536-74.282666a22.954667 22.954667 0 0 1 25.6 8.149333 56.874667 56.874667 0 0 0 44.373333 19.712h29.184c32.128 0 62.208 0 77.397333 15.061333a65.962667 65.962667 0 0 1 14.037334 48.426667c0.213333 19.712 0 38.186667-0.554667 55.552zM512 896a512 512 0 1 1 512-512A512 512 0 0 1 512 896z m262.826667-771.285333v0.298666a53.290667 53.290667 0 0 0-44.970667 18.56 29.269333 29.269333 0 0 1-24.533333 10.709334h-29.184c-36.224 0-74.197333 0-98.133334 23.509333a93.312 93.312 0 0 0-22.784 69.034667q0 39.338667 1.536 73.770666a179.882667 179.882667 0 0 0-44.202666 49.578667A180.565333 180.565333 0 0 0 467.285333 320q1.493333-34.133333 1.493334-72.832a93.269333 93.269333 0 0 0-22.784-68.992c-23.936-23.509333-61.909333-23.210667-98.133334-23.509333h-29.184a29.184 29.184 0 0 1-24.533333-10.752 53.205333 53.205333 0 0 0-44.970667-18.901334c-17.536 0-46.72 13.312-46.72 103.253334 0 110.933333 52.565333 327.722667 172.586667 327.722666 32.341333 0 56.362667-28.117333 72.021333-83.925333a286.677333 286.677333 0 0 1 6.528 67.114667v89.6a14.549333 14.549333 0 0 0 4.266667 10.282666 14.890667 14.890667 0 0 0 10.325333 4.266667 14.549333 14.549333 0 0 0 14.634667-14.506667v-89.6c0-38.4-4.010667-81.28-24.832-118.912q4.266667-28.416 7.04-62.805333a128 128 0 0 1 32.938667 54.656 15.189333 15.189333 0 0 0 18.730666 10.24 15.018667 15.018667 0 0 0 10.538667-10.837333 127.189333 127.189333 0 0 1 31.701333-52.650667q2.602667 33.28 6.912 60.970667c-20.778667 37.674667-24.533333 80.682667-24.533333 118.997333V628.778667a14.549333 14.549333 0 0 0 4.266667 10.282666 14.805333 14.805333 0 0 0 20.693333 0 14.549333 14.549333 0 0 0 4.266667-10.282666v-89.6a286.08 286.08 0 0 1 6.485333-66.56c15.616 55.210667 39.594667 83.072 71.765333 83.072 120.021333 0 172.288-216.917333 172.586667-327.722667 0.170667-89.898667-29.013333-103.253333-46.549333-103.253333z"  horiz-adv-x="1024" />

    
    <glyph glyph-name="jiazhuangxianai" unicode="&#58907;" d="M511.957337 177.894509h-1.194567a143.262728 143.262728 0 0 0-45.948171 6.484793v-29.437547a117.195567 117.195567 0 0 1 47.142738-8.063328h1.578535a114.806433 114.806433 0 0 1 45.564203 8.532622v29.437547a146.419798 146.419798 0 0 0-47.142738-6.954087zM511.957337 435.238397a7.764686 7.764686 0 0 0 1.407883 0c13.908174 0.725273 27.688359 11.775019 34.727772 27.645696l-0.767936 0.511957-0.298642 0.298642c-12.329639 10.239147-23.592701 14.420132-33.575868 12.798934a8.91659 8.91659 0 0 0-3.96767 0c-9.727189 1.450546-20.691609-2.815765-32.63728-12.798934h-0.341305l-0.639946-0.469294c7.167403-16.809266 21.886176-27.987001 36.092992-27.987001zM545.063911 403.369053a52.51829 52.51829 0 0 0-66.042496 0 57.680527 57.680527 0 0 0-28.328306 3.02908c1.535872-7.978002 2.943755-16.297309 4.266311-25.128572a280.936589 280.936589 0 0 0 56.613949 6.527456 11.945671 11.945671 0 0 0 1.749187 0 274.366469 274.366469 0 0 0 55.93134-6.570119q2.047829 13.310891 4.266311 25.213899a57.893842 57.893842 0 0 0-28.456296-3.071744zM424.881927 494.582785a6.826098 6.826098 0 0 0-0.469295-1.834514 191.984001 191.984001 0 0 0 11.476377-27.347054 54.480793 54.480793 0 0 1 30.461462 11.263061c15.913341 13.097575 31.40005 18.601117 45.948171 16.382635 14.462795 2.047829 29.864178-3.498375 45.39355-16.467961a55.078077 55.078077 0 0 1 30.717441-11.263062 197.743521 197.743521 0 0 0 11.39105 27.261729 10.495125 10.495125 0 0 0-0.469294 1.91984c-3.15707 31.272061 8.532622 62.202816 35.325056 95.266727 5.162236 6.954087 6.015499 25.171236-7.167402 55.462045-3.029081 6.954087-7.082076 10.367136-9.769853 10.708441a1.663861 1.663861 0 0 1-1.663861-0.639947c-1.023915-1.36522-1.834514-5.546204 1.322556-12.542954 9.001917-16.083993 5.247563-28.669611-2.47446-34.130489s-20.691609-4.52229-32.722607 9.641863c-6.186151 6.698108-12.244313 10.196484-17.662528 9.087242a16.467961 16.467961 0 0 1-10.15382-10.580451c-9.428548-27.731022-21.672861-39.036747-42.663112-39.036747h-1.23723c-19.966336 0.469294-31.869344 11.945671-40.956587 39.036747-1.493209 3.626364-5.247563 9.727189-10.239147 10.580451s-11.476377-2.431797-17.619865-9.087242c-11.988334-14.164153-25.043246-15.060078-32.722606-9.72719s-11.433714 17.918507-2.474461 34.130489c3.114407 6.99675 2.303808 11.220398 1.36522 12.542955 0 0.426631-0.639947 0.68261-1.706525 0.68261-2.687776-0.341305-6.740772-3.754354-9.727189-10.793767-13.396217-30.418798-12.414965-48.593284-6.99675-55.462045 27.133739-32.63728 38.738105-63.824015 35.495709-95.053412zM578.08516 428.753604q2.303808 10.153821 5.119573 20.222315a72.015332 72.015332 0 0 0-20.43563 5.204899c-10.28181-21.80085-29.864178-35.965003-50.854429-35.965003a6.399467 6.399467 0 0 0-1.279894 0c-20.350304 0.55462-39.506041 14.633447-49.531872 35.965003a72.911257 72.911257 0 0 0-20.307641-5.375552c1.791851-6.31414 3.541038-13.225565 5.2049-20.43563h0.341305a39.975335 39.975335 0 0 1 33.490542-7.466045 8.532622 8.532622 0 0 0 7.551371-2.175818 32.850596 32.850596 0 0 1 24.531289-9.855179h0.981251a32.893259 32.893259 0 0 1 23.592701 9.812516 8.532622 8.532622 0 0 0 7.551371 2.175818 39.463378 39.463378 0 0 1 33.447879 7.466045zM512.170652 275.166403H511.957337a169.159237 169.159237 0 0 0-38.3968 4.948921c-2.60245-6.399467-5.460878-12.798933-8.532623-18.857096a13.780185 13.780185 0 0 0 0-1.877176v-9.812516a116.598283 116.598283 0 0 1 46.929423-8.063328h1.535872a114.934422 114.934422 0 0 1 45.39355 8.063328v9.855179a7.850012 7.850012 0 0 0 0.255979 2.005166c-2.986418 5.930172-5.887509 12.158987-8.532622 18.899758a160.455962 160.455962 0 0 0-38.439464-5.162236zM511.957337 896a511.957337 511.957337 0 1 1 511.957337-511.957337A511.957337 511.957337 0 0 1 511.957337 896z m178.11849-640.842596c-9.727189-22.142155-22.867428-36.135655-39.122073-41.553871a80.291976 80.291976 0 0 0-22.739439-3.498375 62.501458 62.501458 0 0 0-39.719356 14.164153 93.51754 93.51754 0 0 0-12.457629 12.20165v-132.895592a8.532622 8.532622 0 1 0-17.065244 0v33.277227a147.443713 147.443713 0 0 0-47.014749-6.740772h-1.151904A144.542621 144.542621 0 0 0 465.027914 136.596617v-33.405216a8.532622 8.532622 0 1 0-17.065244 0v133.15157a90.36047 90.36047 0 0 0-12.457629-12.116323 62.8001 62.8001 0 0 0-39.76202-14.164153 76.324306 76.324306 0 0 0-22.568786 3.583701c-16.211982 5.375552-29.864178 19.411716-39.122073 41.553871-13.524206 30.546788-19.369053 74.489793-16.681276 123.723023a415.581368 415.581368 0 0 0 33.021248 142.708107v0.511958c7.210066 13.737522 19.497042 21.075577 32.679943 19.454379a35.751687 35.751687 0 0 0 21.544872-10.495126 147.358387 147.358387 0 0 1-27.816349 48.038664c-10.879093 14.292142-9.129906 40.103325 5.034247 72.527289 5.375552 12.158987 13.865511 19.753021 23.592701 20.819598a18.302475 18.302475 0 0 0 17.065244-7.55137c5.162236-7.466044 5.247563-18.345138 0-29.864178a2.943755 2.943755 0 0 0-0.298642-0.639947c-3.967669-6.99675-3.583701-11.775019-2.773102-12.116324s5.07691 0.810599 10.239147 6.954087c10.111157 11.263061 21.971502 16.425298 33.021248 14.377469 10.068494-1.834514 18.259812-9.343221 22.952754-21.331556a0.469294 0.469294 0 0 0 0-0.469294c8.532622-25.597867 16.638613-27.773686 26.32314-27.773685h1.023915c9.215232 0 17.065245 3.029081 25.213898 27.773685v0.469294c4.778268 11.604366 12.798933 19.1984 22.952754 21.032914 10.879093 1.962503 22.654112-3.114407 33.021249-14.377468h0.255978c5.2049-6.100825 9.684526-7.722023 10.28181-6.911424s1.194567 5.07691-2.773102 12.07366a1.877177 1.877177 0 0 0-0.341305 0.639947c-5.460878 11.51904-5.375552 22.398133 0 29.864178a18.558453 18.558453 0 0 0 17.065245 7.551371c9.812516-1.066578 18.302475-8.532622 23.5927-20.819599 14.12149-32.594617 15.870677-58.619115 4.991584-72.783268a146.761103 146.761103 0 0 1-27.603033-48.12399 35.837014 35.837014 0 0 0 20.904925 10.665778c13.182901 1.621198 25.597867-5.716857 32.679943-19.454378v-0.469295a415.069411 415.069411 0 0 0 33.021248-142.793434c3.242396-48.849263-2.645113-92.749604-16.126656-123.253728zM513.407883 194.575785a115.617032 115.617032 0 0 1 45.564203 8.532623v28.840263a147.657029 147.657029 0 0 0-47.014749-6.868761 4.820932 4.820932 0 0 0-1.109241 0 143.049413 143.049413 0 0 0-45.905508 6.356804v-28.797601a118.091492 118.091492 0 0 1 47.014749-8.063328zM642.762436 524.830931c-7.935339-0.981252-19.411716-10.580452-25.597866-34.514457a9.172569 9.172569 0 0 0-0.767936-2.04783c-13.353554-23.72069-24.147321-63.696025-32.253313-118.944754a8.532622 8.532622 0 0 0-3.83968-5.972836 8.788601 8.788601 0 0 0-7.082076-0.853262 233.025915 233.025915 0 0 1-61.349554 8.532622h-0.511958a230.380802 230.380802 0 0 1-60.538955-8.532622 8.532622 8.532622 0 0 0-10.964419 6.783435c-8.191317 55.163403-19.027748 95.309391-32.381302 118.902091a7.082076 7.082076 0 0 0-0.810599 2.047829c-6.015499 23.934005-17.449213 33.533206-25.597867 34.514458-6.143488 0.68261-11.604366-3.029081-15.572036-10.324473-35.069078-79.353387-42.663111-192.538622-16.169319-252.480294 7.594034-17.363886 17.662528-28.456295 28.92559-32.381301a47.910674 47.910674 0 0 1 46.929422 7.722023c13.524206 10.708441 25.597867 29.864178 35.495709 56.613949a8.532622 8.532622 0 0 0 4.692942 4.735605 9.129906 9.129906 0 0 0 6.954087-0.341305c7.167403-3.626364 22.398133-6.186151 39.676694-6.655445 17.321223 0.469294 32.509291 3.114407 39.719357 6.655445a8.532622 8.532622 0 0 0 7.167402 0.426631 8.873927 8.873927 0 0 0 4.735606-4.735605c9.983168-26.920423 21.928839-45.948171 35.410382-56.613949a47.996 47.996 0 0 1 46.929423-7.807349c11.305725 3.83968 21.331556 15.017415 28.925589 32.381301 26.365803 59.941672 19.070411 173.126906-16.211982 252.608283-4.223648 7.423381-9.940505 11.177735-15.913341 10.28181z"  horiz-adv-x="1024" />

    
    <glyph glyph-name="gongjingai" unicode="&#58908;" d="M509.653333 537.6h4.266667a12.074667 12.074667 0 0 0 1.749333 0 412.714667 412.714667 0 0 1 107.776 13.525333C590.506667 567.466667 554.666667 575.061333 512 574.592h-0.981333c-42.112 0.384-77.866667-7.125333-110.933334-23.466667A412.330667 412.330667 0 0 1 508.8 537.6zM744.789333 472.704a56.064 56.064 0 0 1-24.661333 5.162667 68.992 68.992 0 0 1-12.074667-1.066667 59.989333 59.989333 0 0 1-32.981333-16.597333 25.941333 25.941333 0 0 1 7.850667-44.544 64.341333 64.341333 0 0 1 69.717333 12.288 25.984 25.984 0 0 1-7.850667 44.544zM479.061333 283.136c4.821333-5.674667 8.021333-6.741333 8.874667-6.698667s0.896 0.512 1.664 1.664c4.010667 9.642667 0.896 42.154667-6.016 61.952-7.509333 19.029333-10.112 36.693333-12.330667 62.506667v0.298667c-1.109333 21.333333-5.162667 36.053333-12.416 45.568a201.856 201.856 0 0 1-73.344 51.2 306.858667 306.858667 0 0 1 47.829334-118.912c18.090667-27.776 23.893333-78.592 25.6-106.410667 1.962667-34.133333 9.045333-65.493333 19.968-88.192l0.256-0.597333c8.533333-21.802667 4.608-59.733333 2.517333-75.136a2.304 2.304 0 0 1 0-0.469334 18.901333 18.901333 0 0 1 9.258667-1.877333c0.981333 60.373333-4.949333 112.853333-17.621334 156.074667a47.274667 47.274667 0 0 0-7.850666 7.552 8.832 8.832 0 1 0 13.482666 11.392zM304.384 411.605333a67.328 67.328 0 0 1 11.989333-1.066666c21.333333 0 39.082667 10.666667 41.642667 25.344a28.672 28.672 0 0 1-9.045333 24.576 60.245333 60.245333 0 0 1-33.024 16.597333 71.466667 71.466667 0 0 1-11.989334 0.810667c-21.333333 0-39.082667-10.624-41.685333-25.344a28.714667 28.714667 0 0 1 9.088-24.533334 59.989333 59.989333 0 0 1 33.024-16.384zM565.162667 448.384c-7.338667-9.642667-11.264-24.106667-12.416-45.568v-0.298667c-2.218667-25.856-4.821333-43.52-12.330667-62.506666-6.912-19.797333-10.026667-52.309333-6.016-61.952 0.768-1.152 1.408-1.621333 1.664-1.664s4.266667 1.024 8.874667 6.698666a8.832 8.832 0 1 0 13.525333-11.392 49.109333 49.109333 0 0 0-7.893333-7.552c-12.8-43.264-18.602667-95.701333-17.621334-156.074666a18.901333 18.901333 0 0 1 9.258667 1.877333 1.962667 1.962667 0 0 1 0 0.426667c-2.090667 15.36-5.973333 53.418667 2.56 75.136l0.256 0.597333c10.88 22.698667 17.962667 54.016 19.925333 88.192 1.877333 27.818667 7.722667 78.677333 25.6 106.666667a306.517333 306.517333 0 0 1 47.786667 118.826666 201.856 201.856 0 0 1-73.173333-51.413333zM777.130667 561.834667c-27.605333 11.52-48.597333 5.632-73.130667-2.901334-68.266667-26.922667-125.482667-39.168-184.448-39.168h-15.061333C445.482667 519.936 388.266667 532.181333 320 558.933333c-24.576 8.533333-45.568 14.250667-73.173333 2.773334a59.733333 59.733333 0 0 1-34.133334-42.965334c-3.072-14.805333 0-28.757333 8.021334-37.461333a103.424 103.424 0 0 0 23.808-27.733333c0 0.682667 0 1.408 0.341333 2.090666a41.813333 41.813333 0 0 0 11.861333 22.4A33.877333 33.877333 0 0 0 230.4 492.629333c-5.930667 7.594667-7.125333 20.437333-2.944 32.042667a41.770667 41.770667 0 0 0 32.085333 26.794667c22.869333 5.12 49.706667-1.365333 82.005334-19.84 54.272-11.264 98.133333-35.370667 130.688-71.68l0.426666-0.512c9.728-12.8 14.890667-30.208 16.213334-55.466667 2.133333-24.704 4.266667-40.405333 11.221333-57.514667v-0.341333c7.125333-20.266667 12.8-59.946667 5.205333-75.904v-0.768a21.333333 21.333333 0 0 0-11.946666-9.856c11.221333-42.666667 16.469333-92.928 15.701333-150.016a9.472 9.472 0 0 0 3.114667 0 7.850667 7.850667 0 0 0 3.157333 0c-0.768 57.045333 4.266667 107.392 15.701333 149.973333a21.333333 21.333333 0 0 0-11.946666 9.856v0.768c-7.552 15.957333-1.962667 55.466667 5.162666 75.904v0.341334c6.784 17.066667 9.088 32.810667 11.221334 57.514666 1.365333 25.301333 6.528 42.965333 16.213333 55.466667l0.426667 0.469333c32.469333 36.309333 76.458667 60.416 130.730666 71.68 32.256 18.474667 59.093333 24.96 82.048 19.84a41.6 41.6 0 0 0 32-26.794666c4.266667-11.562667 2.986667-24.448-2.944-32.042667a34.133333 34.133333 0 0 0-26.325333-14.421333 41.642667 41.642667 0 0 0 11.818667-22.357334c0-0.725333 0.256-1.408 0.341333-2.133333a102.784 102.784 0 0 0 23.808 27.733333c8.064 8.533333 11.093333 22.656 8.021333 37.418667a59.733333 59.733333 0 0 1-34.474666 43.050667zM512 896a512 512 0 1 1 512-512A512 512 0 0 1 512 896z m303.658667-427.178667l-0.341334-0.341333-0.384-0.341333c-15.530667-12.8-24.618667-27.136-27.776-43.605334a8.789333 8.789333 0 0 0-10.325333-6.997333 8.874667 8.874667 0 0 0-6.229333 4.650667 54.826667 54.826667 0 0 0-5.205334-6.272 81.962667 81.962667 0 0 0-90.282666-15.914667 43.477333 43.477333 0 0 0-12.8 72.533333 78.037333 78.037333 0 0 0 42.666666 21.802667 86.229333 86.229333 0 0 0 25.386667 0.682667 8.832 8.832 0 0 0 13.354667 8.533333c24.874667-15.018667 32.512-4.778667 35.754666-0.426667a18.56 18.56 0 0 1 0.256 15.232 24.277333 24.277333 0 0 1-19.157333 15.488c-18.517333 4.266667-42.24-2.090667-70.656-18.56l-1.237333-0.725333-1.450667-0.298667a274.517333 274.517333 0 0 1-29.866667-7.765333A328.021333 328.021333 0 0 0 605.568 371.2c-16.512-25.386667-21.589333-76.8-23.04-98.133333-2.090667-36.224-9.685333-69.76-21.333333-94.464-4.693333-12.288-5.248-37.546667-1.408-65.962667a17.450667 17.450667 0 0 0-4.778667-15.274667c-4.864-4.864-12.8-7.210667-24.490667-7.210666a141.952 141.952 0 0 0-18.517333 1.408 145.493333 145.493333 0 0 0-18.261333-1.408c-11.776 0-19.626667 2.389333-24.490667 7.253333a17.450667 17.450667 0 0 0-4.778667 15.274667c3.84 28.373333 3.285333 53.632-1.365333 65.962666-11.818667 24.704-19.456 58.24-21.546667 94.464-1.408 21.034667-6.442667 72.533333-22.954666 98.133334a328.533333 328.533333 0 0 0-52.053334 135.466666 262.698667 262.698667 0 0 1-29.866666 7.808l-1.408 0.256-1.28 0.768C305.536 532.053333 281.6 538.325333 263.338667 534.186667a24.192 24.192 0 0 1-19.242667-15.488 18.56 18.56 0 0 1 0.256-15.232c3.242667-4.266667 10.88-14.592 35.754667 0.426666a8.874667 8.874667 0 0 0 12.16-3.029333 9.045333 9.045333 0 0 0 1.322666-5.930667 82.432 82.432 0 0 0 10.368 0.682667 90.197333 90.197333 0 0 0 15.061334-1.322667 78.037333 78.037333 0 0 0 42.666666-21.802666 45.610667 45.610667 0 0 0 13.781334-39.68c-4.266667-23.509333-28.416-39.936-59.050667-39.936a85.333333 85.333333 0 0 0-15.061333 1.322666 77.994667 77.994667 0 0 0-42.666667 21.76 63.317333 63.317333 0 0 0-5.290667 6.442667 8.874667 8.874667 0 0 0-6.229333-4.650667 7.338667 7.338667 0 0 0-1.664 0 8.789333 8.789333 0 0 0-8.533333 7.168c-3.157333 16.469333-12.202667 30.72-27.776 43.605334l-0.384 0.341333-0.341334 0.341333c-12.544 13.098667-17.066667 32.64-12.8 53.632a77.610667 77.610667 0 0 0 44.373334 55.338667c33.365333 13.909333 59.733333 6.784 86.016-2.474667h0.341333c17.066667-6.826667 33.664-12.8 49.621333-17.578666 40.277333 23.936 83.584 34.816 136.064 34.133333h0.597334c52.138667 0.469333 95.232-10.453333 135.338666-34.133333 15.957333 4.906667 32.384 10.752 49.578667 17.536h0.341333c26.282667 9.258667 52.650667 16.384 86.016 2.474666a77.696 77.696 0 0 0 44.629334-55.722666c4.352-20.992-0.384-40.533333-12.928-53.589334z"  horiz-adv-x="1024" />

    
    <glyph glyph-name="qianliexianai" unicode="&#58910;" d="M512 896a512 512 0 1 1 512-512A512 512 0 0 1 512 896z m52.053333-772.565333c-23.594667-33.322667-35.157333-41.386667-52.608-41.386667s-24.917333 8.192-48.554666 41.386667c-27.392 38.826667-1.194667 63.232 0 64.341333 2.474667 1.109333 7.722667 4.48 7.722666 6.698667l-7.722666 196.266666a142.08 142.08 0 0 1 39.850666-9.941333v-217.6a7.978667 7.978667 0 0 1 8.533334-7.722667 8.106667 8.106667 0 0 1 8.533333 7.722667v217.685333a112.938667 112.938667 0 0 1 36.565333 6.613334l-7.722666-193.024c0-2.218667 5.034667-5.589333 7.509333-6.698667s35.2-25.642667 7.893333-64.341333z m122.88 301.866666c-39.850667-28.842667-42.282667-85.333333-37.376-137.6 19.925333-2.261333 38.613333-34.346667 36.138667-59.989333-3.712-37.674667-33.578667-66.56-78.421333-65.450667-2.474667 15.573333-7.509333 28.885333-16.256 36.608l6.314666 90.965334c1.237333 3.328 12.202667 8.832 20.949334 7.68-8.533333 62.122667-2.602667 109.781333 39.722666 145.365333 28.629333 24.405333 57.472 52.224 56.149334 101.034667-1.237333 39.936-67.029333 75.050667-115.584 53.930666 9.984-22.186667-20.266667-44.757333-40.149334-34.816-15.018667-13.312-18.346667-33.578667-22.144-53.589333a40.704 40.704 0 0 0 11.178667-7.722667c1.237333-1.109333 2.432-1.109333 2.432-2.218666l1.237333-1.152c1.237333-1.109333 2.474667-2.218667 2.474667-3.328a47.829333 47.829333 0 0 0 11.178667-33.365334c0-32.213333-23.594667-57.728-51.2-57.728h-2.432c-27.434667 0-51.2 25.6-51.2 57.728a50.304 50.304 0 0 0 11.562666 33.28c1.237333 1.109333 1.237333 2.218667 2.474667 3.328l1.237333 1.152 2.432 2.218667a60.8 60.8 0 0 0 11.221334 7.722667 96.085333 96.085333 0 0 1-27.434667 49.92c-19.925333-9.984-49.109333 12.16-39.125333 33.322666-48.128 26.709333-110.549333-8.746667-110.549334-48.682666-1.237333-47.786667 27.946667-76.8 56.618667-101.034667 42.282667-35.456 49.450667-83.157333 40.704-145.365333a32.426667 32.426667 0 0 0 19.925333-7.68l9.941334-90.965334a61.141333 61.141333 0 0 1-19.925334-36.736c-43.605333 0-75.946667 27.776-79.658666 65.450667-2.304 26.752 16.256 57.856 36.096 60.117333 5.034667 52.138667 2.474667 108.757333-37.333334 137.6-47.317333 33.365333-74.709333 92.074667-53.546666 149.802667 9.941333 27.776 36.138667 48.810667 63.530666 55.466667 31.104 6.698667 68.266667 6.698667 92.202667-11.093334 26.154667 16.682667 68.266667-8.832 48.554667-38.826666a73.216 73.216 0 0 0 22.357333-31.104 74.112 74.112 0 0 0 22.4 31.104c-19.925333 29.866667 22.357333 55.466667 48.554667 38.826666 23.594667 17.792 60.970667 17.792 92.16 11.093334a91.818667 91.818667 0 0 0 63.573333-55.466667c23.808-57.728-3.584-116.565333-50.986667-149.802667z"  horiz-adv-x="1024" />

    
    <glyph glyph-name="ruxianai1" unicode="&#58912;" d="M512 896a512 512 0 1 1 512-512A512 512 0 0 1 512 896z m98.133333-427.904a21.973333 21.973333 0 1 0-10.965333-19.029333 21.888 21.888 0 0 0 10.965333 19.029333z m-207.36 2.944a21.973333 21.973333 0 1 0-21.930666-21.973333 22.016 22.016 0 0 0 22.101333 21.973333z m316.373334-342.016a12.8 12.8 0 0 0-3.157334-18.218667 13.738667 13.738667 0 0 0-7.68-2.389333 13.482667 13.482667 0 0 0-10.837333 5.546667c-62.421333 89.002667-88.490667 183.466667-71.637333 257.536h-4.736v-1.024c-22.058667 0-82.176 6.016-109.056 69.034666-26.794667-62.976-87.125333-69.034667-109.269334-69.034666h-3.114666c16.341333-73.685333-9.813333-167.850667-72.192-256.384a12.8 12.8 0 0 0-12.16-5.546667 12.8 12.8 0 0 0-10.581334 20.608c61.184 87.125333 85.333333 178.816 64.938667 246.4A104.106667 104.106667 0 0 0 315.221333 532.053333a147.2 147.2 0 0 1 9.770667 109.184 12.8 12.8 0 0 0 0.597333 10.026667 12.8 12.8 0 0 0 7.594667 6.613333 13.482667 13.482667 0 0 0 17.066667-8.192 173.269333 173.269333 0 0 0-12.16-132.266666 77.738667 77.738667 0 0 1 64.981333-121.856c35.968 0 95.957333 15.317333 95.957333 117.632v1.024a13.226667 13.226667 0 1 0 26.410667 0c0-102.4 59.989333-117.589333 95.957333-117.589334a79.274667 79.274667 0 0 1 65.024 121.856 173.056 173.056 0 0 0-12.16 132.266667 13.269333 13.269333 0 0 0 6.741334 7.594667 13.44 13.44 0 0 0 17.792-6.016 12.8 12.8 0 0 0 0.554666-10.026667 147.584 147.584 0 0 1 9.770667-109.184 104.32 104.32 0 0 0-54.186667-156.373333c-21.418667-67.669333 2.773333-159.744 64.384-247.722667z"  horiz-adv-x="1024" />

    
    <glyph glyph-name="linbaai" unicode="&#58915;" d="M407.296 501.845333c-2.730667 5.248-5.290667 10.325333-7.68 15.146667-8.533333 17.066667-15.36 32.298667-20.821333 44.970667a416.682667 416.682667 0 0 0-25.6-40.789334 51.584 51.584 0 0 0-14.122667-37.802666 72.106667 72.106667 0 0 0 18.688-21.333334c12.202667-20.949333 14.762667-48.213333 7.765333-81.578666a111.36 111.36 0 0 0 41.173334 19.498666 117.930667 117.930667 0 0 0 64.896-4.266666c-9.301333 13.141333-17.962667 26.197333-25.984 38.954666-34.56 17.92-39.936 46.378667-38.314667 67.2zM660.565333 689.664l-1.28 0.256c1.450667-0.384 1.664-0.341333 1.28-0.256zM512 896a512 512 0 1 1 512-512A512 512 0 0 1 512 896z m301.610667-456.533333a321.365333 321.365333 0 0 0-40.832-48.256c-6.4-20.949333-23.594667-47.530667-69.248-49.493334a273.066667 273.066667 0 0 0-29.866667-12.8 252.117333 252.117333 0 0 0-52.650667-13.184 182.528 182.528 0 0 0-2.645333-26.709333 110.933333 110.933333 0 0 0-21.333333-6.314667 77.994667 77.994667 0 0 0-2.090667-22.912c-3.925333-15.786667-14.848-38.4-44.928-55.466666-21.802667-12.373333-26.069333-21.077333-25.941333-23.424 0-0.938667 1.877333-2.517333 3.456-3.157334 29.354667-3.413333 90.24-20.010667 62.165333-99.882666 0 0-81.493333 10.538667-80.213333 77.738666a31.488 31.488 0 0 0-13.738667 23.210667c-1.450667 17.664 12.117333 34.645333 40.277333 50.602667 31.232 17.706667 33.237333 41.813333 32.597334 51.498666-26.453333 2.218667-55.466667 17.066667-66.218667 68.266667-32.768 21.589333-62.549333 29.44-88.917333 23.338667a88.874667 88.874667 0 0 1-43.136-25.6c4.053333-23.210667-2.432-50.005333-45.568-62.464-0.384-5.248-0.554667-10.794667-0.426667-16.512a131.669333 131.669333 0 0 1 22.741333-73.770667c28.416-0.426667 80.725333-13.056 56.832-105.514667 0 0-69.973333 3.669333-74.154666 81.066667a159.317333 159.317333 0 0 0-34.133334 98.773333 215.978667 215.978667 0 0 0 2.261334 33.706667 151.466667 151.466667 0 0 0-2.602667 8.106667H294.4a104.149333 104.149333 0 0 0-64 20.650666 102.741333 102.741333 0 0 0-19.797333 19.882667v0.426667c0 3.84 0 7.637333 0.298666 11.477333 0 0.298667 0.341333 0.64 0.554667 0.938667s0.938667 1.28 1.365333 1.962666a10.197333 10.197333 0 0 0 0.981334 0.938667l2.517333 1.365333a19.456 19.456 0 0 0 2.56 0.768c0.725333 0 1.450667 0.298667 2.176 0.469334 0 0 0.341333 0 1.962667 0.341333H226.816l1.493333-0.426667 1.066667-0.512a34.133333 34.133333 0 0 0 2.944-1.834666l4.736-3.370667 0.469333-0.341333a74.069333 74.069333 0 0 1 54.869334-24.192c1.749333 18.901333 12.8 37.248 45.056 45.994666 7.168 32.256 2.645333 51.712-4.266667 63.104a44.330667 44.330667 0 0 1-19.968 18.005334A163.285333 163.285333 0 0 0 260.266667 453.632c-0.981333 80.512 49.066667 90.965333 74.496 91.093333a456.533333 456.533333 0 0 1 24.362666 40.789334c17.066667 32 30.634667 64 36.224 77.653333l1.450667 0.725333c0.725333 0.341333 1.493333 0.853333 2.304 1.194667l1.28 0.298667a12.245333 12.245333 0 0 0 1.877333 0.341333h4.394667a58.624 58.624 0 0 0 6.101333-1.706667l2.773334-1.493333c0.768-0.512 1.493333-1.024 2.304-1.493333s0.938667-1.024 1.493333-1.578667l1.152-1.578667c0.597333-0.938667 1.066667-1.92 1.578667-2.901333s0-0.682667 0.341333-1.024c-4.266667-10.538667-13.610667-33.024-26.24-58.666667 5.674667-14.336 15.488-37.717333 29.397333-65.792l1.066667-2.090666c68.266667-7.381333 58.581333-60.501333 49.365333-86.741334 12.074667-18.688 25.6-37.930667 40.490667-56.789333 2.944 0.64 6.144 1.237333 9.514667 1.792-5.290667 86.357333 14.848 108.885333 23.808 114.56 1.749333 1.28 3.413333 2.645333 5.12 4.010667-18.176 75.690667 46.037333 99.712 75.093333 106.666666a295.082667 295.082667 0 0 1 17.066667 74.410667l0.810666 0.682667 1.28 1.066666-1.365333-1.024c0.725333 1.408 4.266667 2.688 5.674667 3.541334l2.346666 0.597333h3.114667-1.024l1.194667-0.256a6.058667 6.058667 0 0 0 1.28-0.256h0.384c0.938667 0 1.877333-0.469333 2.773333-0.768h0.597333a21.845333 21.845333 0 0 1 2.133334-0.981333 29.866667 29.866667 0 0 0 2.944-1.749334c0.469333-0.256 1.066667-0.768 1.578666-1.109333s0-0.256 0.341334-0.298667 1.28-1.28 1.92-1.92a18.986667 18.986667 0 0 1 2.005333-3.370666A323.968 323.968 0 0 0 661.333333 614.101333a307.456 307.456 0 0 0-11.690666-30.762666C655.36 529.066667 620.928 507.733333 592.597333 499.2a248.234667 248.234667 0 0 0-26.453333-22.698667l-0.64-0.512c-1.792-1.962667-15.317333-19.370667-11.093333-88.448 26.453333-0.64 54.186667-9.984 63.402666-43.434666a224.554667 224.554667 0 0 1 47.573334 11.946666c2.304 0.853333 4.608 1.792 6.912 2.688 7.594667 22.229333 29.354667 61.866667 87.338666 59.477334a298.965333 298.965333 0 0 1 31.061334 38.058666h2.858666c-2.432 0 0.426667 0 0.938667-0.213333a46.933333 46.933333 0 0 0 5.461333-1.536l1.578667-0.682667c2.176-1.066667 4.266667-2.218667 6.101333-3.413333a11.136 11.136 0 0 0 0.853334-0.725333c0.256-0.341333 1.194667-1.365333 1.706666-1.92l1.066667-1.706667 1.066667-2.133333 0.213333-0.426667c0.384-1.109333 1.024-3.072 1.237333-3.712s0.042667-0.341333-0.170666-0.341333z"  horiz-adv-x="1024" />

    
    <glyph glyph-name="editor" unicode="&#58904;" d="M1024.012 384c0-282.771-229.229-512-512-512-282.77 0-512 229.229-512 512 0 282.77 229.23 512 512 512 282.771 0 512-229.23 512-512zM797.807 622.204c-6.335 13.573-15.271 26.583-26.809 39.025-11.537 12.443-22.059 21.153-31.559 26.13-4.525 2.262-9.841 4.299-15.951 6.109-6.108 1.809-12.443 2.827-19.004 3.053-6.561 0.227-13.234-0.679-20.022-2.715s-13.348-5.542-19.683-10.519c-4.977-4.072-11.198-9.615-18.664-16.629-7.466-7.013-13.912-13.008-19.343-17.986l126.917-126.917c3.166 2.715 6.561 5.883 10.18 9.502 3.166 3.167 6.899 6.787 11.199 10.858 4.298 4.073 9.162 8.823 14.592 14.252 4.977 5.429 8.596 11.085 10.858 16.968 2.263 5.882 3.395 11.764 3.395 17.647 0 5.882-0.567 11.537-1.697 16.967-1.131 5.43-2.604 10.181-4.412 14.254zM269.097 290.996c-6.335-6.334-11.198-12.102-14.592-17.306-3.394-5.204-6.448-10.973-9.162-17.306-2.262-4.075-5.204-11.539-8.823-22.399-3.62-10.859-7.353-22.736-11.198-35.631-60.073-193.496-100.499-417.627-112.695-649.24 98.443 599.92 96.294 590.759 95.389 584.424-1.809-11.763-0.679-20.135 3.393-25.113 4.073-4.978 12.217-6.785 24.434-5.428 5.883 0.904 14.818 2.939 26.809 6.108 11.991 3.166 24.66 6.9 38.007 11.199 13.348 4.297 26.13 8.709 38.346 13.234s21.492 8.371 27.827 11.537c6.335 2.715 12.442 6.336 18.325 10.86 5.883 4.523 11.086 8.822 15.611 12.894 1.81 1.357 7.465 6.787 16.968 16.291 9.502 9.502 21.492 21.603 35.971 36.308 14.478 14.707 30.768 30.881 48.868 48.529l54.295 54.975 145.922 145.921-126.919 127.594-250.442-250.441c-14.932-14.933-27.375-27.488-37.328-37.669-9.954-10.18-16.29-16.628-19.004-19.344z"  horiz-adv-x="1030" />

    
    <glyph glyph-name="icon-life-people" unicode="&#59031;" d="M502.496 831.456c125.856 0 227.904-100.352 227.904-224.16 0-123.744-102.048-224.192-227.904-224.192S274.592 483.552 274.592 607.296c-0.032 123.84 102.08 224.16 227.904 224.16z m0 0c125.856 0 227.904-100.352 227.904-224.16 0-123.744-102.048-224.192-227.904-224.192S274.592 483.552 274.592 607.296c-0.032 123.84 102.08 224.16 227.904 224.16z m-85.504-523.04h189.984c162.592 0 294.368-129.632 294.368-289.536v-18.656c0-63.04-131.84-65.44-294.368-65.44H416.992c-162.528 0-294.336 0.032-294.336 65.44V18.879999999999995c0 159.904 131.808 289.536 294.336 289.536z"  horiz-adv-x="1024" />

    
    <glyph glyph-name="shaixuan1" unicode="&#58995;" d="M96 768h608c17.6 0 32-14.4 32-32 0-6.4-1.6-12.8-6.4-19.2L528 432v-396.8c0-17.6-14.4-32-32-32-4.8 0-9.6 1.6-14.4 3.2l-192 96c-11.2 4.8-17.6 16-17.6 28.8V432L70.4 716.8c-11.2 14.4-8 35.2 6.4 44.8 4.8 4.8 11.2 6.4 19.2 6.4z m582.4-448c-12.8 0-22.4 11.2-22.4 24s9.6 24 22.4 24h259.2c12.8 0 22.4-11.2 22.4-24s-9.6-24-22.4-24H678.4z m0-112c-12.8 0-22.4 11.2-22.4 24s9.6 24 22.4 24h259.2c12.8 0 22.4-11.2 22.4-24s-9.6-24-22.4-24H678.4z m0-112c-12.8 0-22.4 11.2-22.4 24s9.6 24 22.4 24h259.2c12.8 0 22.4-11.2 22.4-24s-9.6-24-22.4-24H678.4z"  horiz-adv-x="1024" />

    
    <glyph glyph-name="daochu1" unicode="&#58902;" d="M1023.232048 850.24286v-252.400225a42.23736 42.23736 0 0 0-43.005312-42.301356 42.621336 42.621336 0 0 0-42.941316 42.301356V750.537091L588.699206 401.374914a42.493344 42.493344 0 0 0-60.732204 0 42.813324 42.813324 0 0 0 0 60.028248l349.290169 349.29017h-152.118492a42.685332 42.685332 0 1 0 0 85.242672h255.792013c23.870508 0 43.005312-19.070808 43.005312-42.301356 0-1.151928-0.63996-2.175864-0.703956-3.391788z m-487.073558-39.549528H170.549341c-47.101056 0-85.306668-38.205612-85.306669-85.306669v-682.133366c0-47.101056 38.205612-85.306668 85.306669-85.306669h682.133366c47.101056 0 85.242672 38.205612 85.242673 85.306669v362.217361c0 23.870508 19.134804 43.005312 43.005312 42.301356 23.166552 0 42.301356-19.134804 42.301356-42.301356v-362.921317A170.613337 170.613337 0 0 0 852.682707-128H170.549341A170.613337 170.613337 0 0 0 0 42.549341V724.746703A170.613337 170.613337 0 0 0 170.549341 895.296044h365.609149c23.166552 0 42.301356-19.134804 42.301356-42.301356a42.493344 42.493344 0 0 0-42.301356-42.301356z"  horiz-adv-x="1024" />

    
    <glyph glyph-name="daoru" unicode="&#59134;" d="M658.646914 304.355556c11.377778-11.377778 15.17037-28.444444 8.849382-43.614815-5.688889-15.17037-20.22716-24.651852-36.661728-25.283951l-245.88642-3.160494c-10.745679 0-21.491358 3.792593-29.708642 11.377778-6.953086 6.953086-11.377778 16.434568-11.377778 26.548148l-3.160493 247.782716c0 15.802469 9.481481 30.97284 24.019753 37.293827s32.237037 3.160494 43.614814-7.585185c7.585185-7.585185 12.009877-17.698765 12.009877-27.812345l-3.792593-164.977778 530.330865 518.953086c15.802469 15.17037 41.08642 15.802469 57.520987 0.632099 7.585185-7.585185 12.009877-17.066667 12.009877-27.812346 0-10.745679-4.424691-20.22716-12.009877-27.812345L475.97037 312.57284l154.232099 3.160493c10.745679 0 20.859259-3.792593 28.444445-11.377777z m284.444444 139.693827l4.424691 4.424691 73.955556-4.424691v-467.753087c0-53.728395-43.614815-96.711111-97.34321-96.711111H99.871605c-53.728395 0-96.711111 43.614815-97.34321 96.711111v815.407408C2.528395 845.432099 46.14321 889.046914 99.871605 889.046914l504.414815-4.424692-4.424692-73.955555H99.871605c-10.11358 0-18.330864-8.217284-18.330864-18.330865v-815.407407c0-10.11358 8.217284-18.330864 18.330864-18.330864h824.25679c10.11358 0 18.330864 8.217284 18.330864 18.330864l0.632099 467.120988z m0 0"  horiz-adv-x="1024" />

    
    <glyph glyph-name="xiazai" unicode="&#59137;" d="M992.38912 214.87616h-42.97728a31.71328 31.71328 0 0 1-31.61088-31.62112v-92.18048a31.72352 31.72352 0 0 0-31.62112-31.62112H137.80992a31.71328 31.71328 0 0 0-31.61088 31.62112v92.18048a31.71328 31.71328 0 0 1-31.61088 31.62112H31.61088A31.70304 31.70304 0 0 1 0 183.25504v-198.38976a31.71328 31.71328 0 0 1 31.61088-31.61088h960.77824A31.71328 31.71328 0 0 1 1024-15.13472V27.8528 183.26528a31.71328 31.71328 0 0 1-31.61088 31.61088zM490.50624 752.39424h42.97728c17.37728 0 31.61088 14.0288 31.61088 31.17056s-14.2336 31.17056-31.61088 31.17056h-42.97728c-17.38752 0-31.61088-14.0288-31.61088-31.17056s14.2336-31.17056 31.61088-31.17056zM474.71616 174.2336c23.99232-25.16992 62.464-24.44288 85.49376 1.61792L677.87776 309.0432c23.01952 26.0608 13.4144 47.38048-21.37088 47.38048h-91.41248v318.0544a31.71328 31.71328 0 0 1-31.61088 31.61088h-42.97728a31.70304 31.70304 0 0 1-31.61088-31.61088v-318.0544h-94.62784c-34.77504 0-43.59168-20.59264-19.59936-45.76256l130.048-136.42752z"  horiz-adv-x="1024" />

    
    <glyph glyph-name="shijian2" unicode="&#58909;" d="M532.058353 788.600471a451.764706 451.764706 0 1 0 0-903.649883 451.764706 451.764706 0 0 0 0 903.649883z m25.118118-200.824471H481.882353v-301.176471l238.411294-143.058823 37.647059 61.741176L557.176471 324.246588V587.776z m476.882823 114.447059l-64.752941-76.8-230.942118 193.776941L803.117176 896l230.942118-193.776941zM325.270588 819.2L94.870588 625.965176 30.117647 702.765176 260.999529 896 325.270588 819.2z"  horiz-adv-x="1084" />

    
    <glyph glyph-name="shijian3" unicode="&#58896;" d="M256 768v-128a64 64 0 1 1 128 0V768h256v-128a64 64 0 1 1 128 0V768h128a128 128 0 0 0 128-128v-640a128 128 0 0 0-128-128H128a128 128 0 0 0-128 128V640a128 128 0 0 0 128 128h128zM64 448v-448a64 64 0 0 1 64-64h768a64 64 0 0 1 64 64V448H64z m256-256a32 32 0 0 0-32-32h-64a32 32 0 0 0 0 64h64a32 32 0 0 0 32-32z m256 0a32 32 0 0 0-32-32h-64a32 32 0 0 0 0 64h64a32 32 0 0 0 32-32z m256 0a32 32 0 0 0-32-32h-64a32 32 0 0 0 0 64h64a32 32 0 0 0 32-32z m-512-128a32 32 0 0 0-32-32h-64a32 32 0 0 0 0 64h64a32 32 0 0 0 32-32z m256 0a32 32 0 0 0-32-32h-64a32 32 0 0 0 0 64h64a32 32 0 0 0 32-32z m256 0a32 32 0 0 0-32-32h-64a32 32 0 0 0 0 64h64a32 32 0 0 0 32-32zM320 320a32 32 0 0 0-32-32h-64a32 32 0 0 0 0 64h64A32 32 0 0 0 320 320z m256 0a32 32 0 0 0-32-32h-64a32 32 0 0 0 0 64h64A32 32 0 0 0 576 320z m256 0a32 32 0 0 0-32-32h-64a32 32 0 0 0 0 64h64a32 32 0 0 0 32-32zM320 864a32 32 0 0 0 32-32v-192a32 32 0 0 0-64 0V832A32 32 0 0 0 320 864z m384 0a32 32 0 0 0 32-32v-192a32 32 0 0 0-64 0V832a32 32 0 0 0 32 32z"  horiz-adv-x="1024" />

    
    <glyph glyph-name="renqun" unicode="&#58940;" d="M362.23 306.41c5.58 5.59 16.77 5.59 27.91 11.17 16.75 11.16 27.91 27.91 0 55.82-100.49 145.15-67 234.47-50.24 273.54-11.17 0-27.91 5.58-44.66 5.58-94.9 0-117.23-83.74-122.82-134 0-111.65 67-156.31 67-156.31s5.58-5.58 5.58-22.33c0-5.58 0-16.75-5.58-16.75-39.08-33.49-167.48-61.4-173.06-128.4-5.58-16.75 0-39.08 0-55.82 16.75-22.33 83.74-33.5 83.74-33.5s5.58 16.75 11.17 44.66c5.58 39.08 61.41 106.07 201 156.31zM954 194.76c-11.16 67-139.56 100.49-178.64 128.4-5.58 5.58-5.58 16.75-5.58 16.75 0 16.75 5.58 22.33 5.58 22.33s72.57 44.66 67 156.31c0 44.66-33.5 134-122.82 134h-5.58c-22.33 0-33.49-5.58-50.24-11.17 16.75-67 44.66-184.22-55.83-262.38-39.08-55.83 89.32-89.32 72.58-83.74 117.23-50.25 145.14-94.9 156.31-134 5.58-33.5 11.16-55.83 11.16-55.83s89.32 11.17 111.65 27.91C954 155.68 954 172.43 954 194.76z m-385.2 128.4s-5.58 16.75-5.58 22.33c0 22.33 5.58 27.91 5.58 27.91s83.74 44.66 83.74 195.39c0 61.41-39.08 161.89-150.73 161.89h-5.58C379 730.68 345.5 624.61 345.5 568.79c0-139.56 83.74-195.39 83.74-195.39s11.17-11.17 11.17-33.49c0-5.58-5.58-16.75-11.17-16.75C379 284.08 205.92 245 194.75 161.27c-11.16-33.5-61.41-89.32 111.65-111.65 44.66-5.58 111.65-11.16 195.39-11.16 396.36 0 312.62 78.16 301.46 122.82C792.08 245 619 284.08 568.78 323.16z m0 0"  horiz-adv-x="1024" />

    
    <glyph glyph-name="shangchuan" unicode="&#59029;" d="M864 341.333333a32 32 0 0 0 32-32v-234.666666a32 32 0 0 0-27.648-31.701334L864 42.666667H160a32 32 0 0 0-32 32v234.666666a32 32 0 1 0 64 0v-202.624l640-0.042666v202.666666a32 32 0 0 0 32 32z m-340.522667 380.074667l2.773334-2.56 193.194666-211.797333a23.210667 23.210667 0 0 0 5.888-15.616c0-10.837333-7.125333-19.882667-16.512-21.76l-3.626666-0.341334H576v-170.666666a21.333333 21.333333 0 0 0-21.333333-21.333334h-85.333334a21.333333 21.333333 0 0 0-21.333333 21.333334v170.666666H318.805333a18.986667 18.986667 0 0 0-11.818666 4.224l-2.432 2.261334a23.722667 23.722667 0 0 0-2.56 27.733333l2.56 3.498667 193.194666 211.797333c6.997333 7.68 17.834667 8.533333 25.728 2.56z"  horiz-adv-x="1024" />

    
    <glyph glyph-name="gengduo" unicode="&#58894;" d="M818.871654 156.026928H420.892061c-19.724646 0-35.663753 11.854711-35.663754 26.598386 0 14.743675 15.939108 26.598386 35.663754 26.598386H818.871654c19.724646 0 35.663753-11.854711 35.663754-26.598386-0.099619-14.644055-15.939108-26.598386-35.663754-26.598386z m2.092008 199.438085H312.008032c-18.529213 0-33.571745 11.854711-33.571746 26.598385 0 14.743675 15.042533 26.598386 33.571746 26.598386H820.864043c18.529213 0 33.571745-11.854711 33.571745-26.598386 0-14.743675-14.843294-26.598386-33.472126-26.598385z m1.295053 199.238845H204.020578c-17.831877 0-32.276693 11.854711-32.276693 26.598386s14.444816 26.598386 32.276693 26.598386h618.238137c17.831877 0 32.276693-11.854711 32.276693-26.598386s-14.444816-26.598386-32.276693-26.598386z"  horiz-adv-x="1027" />

    
    <glyph glyph-name="shoucang2" unicode="&#59103;" d="M512.306 798.21v-58.382c0.73 0 2.068-0.609 2.676-1.095 0.365-0.73 0.608-1.46 0.973-2.068l99.615-202.392c8.27-16.784 23.961-28.46 42.327-31.745l222.582-38.921c0.73-0.122 1.582-0.244 2.311-0.365 0.365 0 0.973-0.487 1.095-0.852 0.243-1.094 0.608-2.31 0.973-3.405 0.243-0.73 0.973-2.92-1.095-5.352L724.55 303.542c-14.474-13.623-21.042-33.691-17.393-53.152l40.503-217.96v-0.122c0.365-2.19-1.46-4.014-2.554-4.865-0.244-0.244-0.487-0.365-0.73-0.608-0.973 0.243-2.19 0.73-3.527 1.337L538.457 129.368c-8.271 4.136-17.15 6.203-26.15 6.203-8.88 0-17.758-2.067-25.908-6.081L282.426 28.294c-0.608-0.243-1.094-0.608-1.702-0.851-0.122 0-0.609-0.244-1.338-0.244-0.73 0-1.338 0.122-1.46 0.244-1.338 1.094-2.432 3.284-2.554 4.378v0.122l42.084 218.082c3.77 19.704-2.798 40.016-17.515 53.76L140.728 452.052c-1.46 1.703-2.19 4.987-2.068 6.933 0.608 1.338 1.216 1.946 1.46 2.189 0.121 0.122 0.365 0.243 1.094 0.365 1.095 0.122 2.19 0.243 3.163 0.486l222.582 40.503c18.244 3.284 33.813 15.082 41.962 31.624L508.414 736.3c1.338 2.554 3.406 3.406 3.77 3.406V798.21m0.122 0c-23.352 0-45.124-13.988-56.07-35.76L356.62 560.06l-222.583-40.503c-24.934-3.162-43.543-20.19-51.327-43.543-6.204-21.772 0-48.287 17.15-65.437l160.307-149.604-42.084-217.96c-4.622-23.354 6.203-48.288 24.934-62.275 10.46-7.906 23.475-11.798 36.368-11.798 10.095 0 20.069 2.432 28.948 7.176l203.972 101.196 202.392-101.196c9.366-4.622 20.19-7.784 29.556-7.784 13.988 0 26.515 4.622 35.76 12.406 18.73 13.987 29.555 37.34 24.933 62.274l-40.502 217.96 160.308 151.065c17.15 17.15 23.352 42.083 15.568 65.436-6.203 23.353-26.515 40.503-49.868 43.544L667.87 559.938 568.255 762.33c-9.244 21.772-32.597 35.88-55.95 35.88z"  horiz-adv-x="1024" />

    
    <glyph glyph-name="add-fill" unicode="&#58885;" d="M825.82 696.975C741.931 780.456 630.434 826.434 511.806 826.434S281.64 780.456 197.744 696.976 67.6 502.386 67.6 384.234s46.225-229.24 130.143-312.75 195.394-129.458 314.033-129.458 230.155 45.928 314.013 129.457 130.143 194.63 130.143 312.781-46.156 229.201-130.114 312.711z m-91.916-344.472H543.537v-190.377c0-17.524-14.206-31.731-31.73-31.731s-31.731 14.207-31.731 31.73V352.504H289.698c-17.524 0-31.73 14.206-31.73 31.73s14.206 31.731 31.73 31.731h190.377V606.3330000000001c0 17.524 14.206 31.73 31.73 31.73 17.526 0 31.731-14.206 31.731-31.73v-190.377h190.367c17.524 0 31.73-14.207 31.73-31.73s-14.206-31.732-31.73-31.732v0.009z"  horiz-adv-x="1028" />

    
    <glyph glyph-name="shoucang3" unicode="&#58936;" d="M752-43.2c-9.6 0-20.8 3.2-30.4 8l-208 104-209.6-104c-20.8-11.2-48-9.6-67.2 4.8-19.2 14.4-30.4 40-25.6 64l43.2 224L89.6 411.2C72 428.8 65.6 456 72 478.4c8 24 27.2 41.6 52.8 44.8l228.8 41.6 102.4 208c11.2 22.4 33.6 36.8 57.6 36.8s48-14.4 57.6-36.8l102.4-208 228.8-40c24-3.2 44.8-20.8 51.2-44.8 8-24 1.6-49.6-16-67.2L772.8 257.6l41.6-224c4.8-25.6-6.4-49.6-25.6-64-9.6-8-22.4-12.8-36.8-12.8z"  horiz-adv-x="1024" />

    
    <glyph glyph-name="guanbi1" unicode="&#59077;" d="M583.168 386.446l375.296 375.296c18.944 18.944 18.944 50.176 0 69.12l-2.048 2.048c-18.944 18.944-50.176 18.944-69.12 0L512 457.102 136.704 832.91c-18.944 18.944-50.176 18.944-69.12 0l-2.048-2.048c-19.456-18.944-19.456-50.176 0-69.12l375.296-375.296L65.536 11.15c-18.944-18.944-18.944-50.176 0-69.12l2.048-2.048c18.944-18.944 50.176-18.944 69.12 0L512 315.278l375.296-375.296c18.944-18.944 50.176-18.944 69.12 0l2.048 2.048c18.944 18.944 18.944 50.176 0 69.12L583.168 386.446z"  horiz-adv-x="1024" />

    
    <glyph glyph-name="shanchu1" unicode="&#58939;" d="M799.2 21.6c0-34.4-28-62.4-62.368-62.4H287.2a62.496 62.496 0 0 0-62.4 62.4V684h574.4v-662.4zM349.6 796c0 7.2 5.6 12.8 12.8 12.8h300c7.2 0 12.768-5.6 12.768-12.8v-37.6H349.6V796z m636.8-37.6H749.6V796c0 48-39.2 87.2-87.2 87.2h-300a87.392 87.392 0 0 1-87.2-87.2v-37.6H37.6C16.8 758.4 0 741.6 0 720.8s16.8-37.6 37.6-37.6h112v-661.6A137.6 137.6 0 0 1 287.2-116h449.6a137.6 137.6 0 0 1 137.6 137.6V684h112c20.8 0 37.6 16.8 37.6 37.6s-16.8 36.8-37.6 36.8zM512 72c20.8 0 37.6 16.8 37.6 37.6v400c0 20.8-16.768 37.6-37.6 37.6-20.8 0-37.6-16.8-37.6-37.6v-400c0-20.8 16.8-37.6 37.6-37.6m-175.2 0c20.8 0 37.6 16.8 37.6 37.6v400c0 20.8-16.8 37.6-37.6 37.6s-37.6-16.8-37.6-37.6v-400c0.8-20.8 17.6-37.6 37.6-37.6m350.4 0c20.8 0 37.632 16.8 37.632 37.6v400c0 20.8-16.8 37.6-37.632 37.6-20.768 0-37.6-16.8-37.6-37.6v-400c0-20.8 16.8-37.6 37.6-37.6"  horiz-adv-x="1024" />

    
    <glyph glyph-name="dengpao1" unicode="&#58972;" d="M159.663 503.232c0 96.803 34.411 179.385 102.761 248.659 68.362 69.271 151.39 103.678 248.656 103.678 97.262 0 180.29-34.411 249.581-103.678 69.271-69.276 103.678-151.856 103.678-248.659 0-13.301-0.459-27.066-1.845-40.375-2.289-2.292-1.83-6.875-1.83-9.167l-5.506-33.039c-2.297 0-1.83-3.21-1.83-5.506-3.676-12.381-7.344-23.39-11.013-33.03 0 0 0-0.451 0-1.838 0 0-0.459-0.454-1.838-1.83-5.044-13.306-9.637-25.239-14.685-34.865 0-1.379-0.459-1.842-1.835-1.842-5.969-12.381-12.843-23.86-20.188-34.865-7.333-11.013-15.14-22.026-23.86-33.03 0 0-0.459-0.462-0.906-0.929l-0.921-0.898c-7.337-8.724-16.053-16.981-25.686-25.706 0 0-0.917-0.454-2.755-1.83-4.589-3.206-5.047-5.965-10.103-11.009-2.289 0-5.491-1.372-5.491-3.676l-17.44-13.748-3.673-2.751-2.751-1.845c-11.002-8.716-18.816-18.357-23.86-29.362-5.044-11.009-9.626-18.804-14.673-23.856-5.047-5.037-14.219-7.337-27.532-7.337l-264.254 0c-13.301 0-22.477 2.304-27.52 7.337-5.052 5.056-10.103 12.847-15.606 23.856-5.506 11.005-13.301 20.646-22.931 29.362-1.383 0-2.292 0.462-3.676 1.845l-2.751 2.751-17.433 13.748-5.506 3.676-7.333 7.329c0 0-1.842 1.845-5.506 5.51l-25.701 25.706c0 0-0.451 0.443-0.91 0.898l-0.921 0.929c-16.978 22.018-31.655 43.589-44.036 67.895-1.383 0-1.845 0.459-1.845 1.842-5.044 9.626-9.63 21.559-14.673 34.865-1.379 0-1.842 0.459-1.842 1.83 0 0 0 0.459 0 1.838-3.661 9.641-7.337 20.65-11.005 33.03 0 0-0.459 0.921-0.921 2.751l-0.921 2.751c-2.292 9.633-4.123 20.646-5.503 33.039 0 2.292-1.835 6.875-1.835 9.167-1.364 13.313-1.823 27.077-1.823 40.379l0 0zM367.026 92.171l293.62 0c16.974 0 29.355-12.381 29.355-29.362 0-16.97-12.381-29.355-29.355-29.355l-293.62 0c-16.978 0-29.366 12.385-29.366 29.355 0 16.981 12.388 29.362 29.366 29.362l0 0zM379.866-25.275l266.092 0-108.275-55.041c-16.978-7.356-36.241-7.356-53.218 0l-104.598 55.041zM543.193 679.4c35.331 0 68.817-14.223 100.017-43.126 31.197-28.896 46.791-64.686 46.791-107.354 0-14.677 12.388-29.362 29.362-29.362 16.978 0 29.362 14.685 29.362 29.362 0 63.773-20.642 114.24-62.401 152.31-41.743 38.082-89.455 56.898-143.132 56.898-16.974 0-29.362-12.385-29.362-29.362s12.388-29.366 29.362-29.366z"  horiz-adv-x="1024" />

    
    <glyph glyph-name="shoudongluru" unicode="&#58980;" d="M512 768c-212.1 0-384-171.9-384-384s171.9-384 384-384 384 171.9 384 384-171.9 384-384 384z m122.6-305.8L473.1 182.5c-3.8-3.5-7.3-6.7-11.1-10.2l-102.5-48.4c-6.3-3-13.5 1.2-14.1 8.1L336 244.9c1.1 5 2.2 9.7 3.3 14.7l161.5 279.7c2.8 4.8 8.9 6.5 13.6 3.7L631 475.8c4.8-2.7 6.4-8.8 3.6-13.6z m46.5 80.4l-11.3-19.5c-2.8-4.8-8.9-6.5-13.6-3.7l-116.5 67.3c-4.7 2.7-6.3 8.9-3.6 13.7l11.3 19.5c13.9 24 44.4 32.4 68.1 18.7l47.8-27.6c23.6-13.8 31.6-44.4 17.8-68.4z"  horiz-adv-x="1024" />

    
    <glyph glyph-name="biji" unicode="&#58991;" d="M819.2 880.64H107.52C56.32 875.52 15.36 834.56 10.24 783.36v-788.48c5.12-51.2 46.08-92.16 97.28-97.28h721.92c51.2 5.12 92.16 46.08 97.28 97.28v291.84l-163.84-230.4-194.56-56.32-5.12 194.56 358.4 506.88c0 56.32 0 92.16-5.12 112.64-5.12 30.72-51.2 66.56-92.16 66.56H819.2zM399.36 199.68c25.6 0 51.2-20.48 51.2-51.2 0-25.6-20.48-46.08-46.08-51.2H168.96c-25.6 5.12-46.08 25.6-46.08 51.2s20.48 46.08 46.08 51.2h230.4z m501.76 404.48l-296.96-430.08v-128l122.88 35.84L1024 512l-122.88 92.16zM486.4 445.44c25.6 0 51.2-20.48 51.2-51.2 0-25.6-20.48-46.08-46.08-51.2H168.96c-25.6 5.12-46.08 25.6-46.08 51.2s20.48 46.08 46.08 51.2h317.44z m112.64 250.88c25.6 0 51.2-20.48 51.2-51.2 0-25.6-20.48-46.08-46.08-51.2H168.96c-25.6 5.12-46.08 25.6-46.08 51.2s20.48 46.08 46.08 51.2h430.08z m389.12 30.72l-51.2-71.68 122.88-92.16 51.2 71.68-122.88 92.16z"  horiz-adv-x="1126" />

    
    <glyph glyph-name="luruweixuanzhong" unicode="&#58901;" d="M268.0832 39.1168c-55.808 0-101.1712 42.496-101.1712 94.8224V589.4144c0 52.224 45.3632 94.8224 101.1712 94.8224h243.3024c16.4864 0 29.9008-12.4928 29.9008-27.9552 0-15.4624-13.4144-27.9552-29.9008-27.9552H268.0832c-22.8352 0-41.472-17.408-41.472-38.8096v-455.5776c0-21.4016 18.6368-38.8096 41.472-38.8096H754.688c22.8352 0 41.472 17.408 41.472 38.8096V361.6768c0 15.4624 13.4144 27.9552 29.9008 27.9552s29.9008-12.4928 29.9008-27.9552v-227.84c0-52.224-45.3632-94.8224-101.1712-94.8224H268.0832zM515.7888 258.3552c-1.2288 0-2.4576 0.1024-3.7888 0.2048l-97.0752 0.7168c-13.5168 1.6384-24.1664 12.288-25.9072 25.9072l-0.7168 97.1776c-1.1264 9.216 1.9456 18.2272 8.4992 24.7808l306.8928 306.8928c19.2512 19.2512 44.9536 29.9008 72.2944 29.9008 27.3408 0 51.5072-9.216 70.8608-28.4672l1.2288-1.2288c19.3536-19.2512 25.6-40.5504 25.6-67.9936 0-27.3408-10.6496-53.0432-30.0032-72.2944L536.9856 267.1616c-5.632-5.632-13.2096-8.8064-21.1968-8.8064z m260.096 425.8816c-11.3664 0-22.016-4.4032-30.0032-12.3904L449.3312 375.296l-3.9936-59.5968 59.5968 3.9936 296.5504 296.5504c8.0896 8.0896 12.4928 18.7392 12.4928 30.1056 0 11.3664-0.1024 17.7152-8.0896 25.7024l-1.2288 1.2288c-8.192 7.9872-17.408 10.9568-28.7744 10.9568z"  horiz-adv-x="1024" />

    
    <glyph glyph-name="zhanshi" unicode="&#58935;" d="M781.473684 33.684211h-161.68421a53.894737 53.894737 0 0 0-53.894737 53.894736v107.789474a53.894737 53.894737 0 0 0 53.894737 53.894737h161.68421a53.894737 53.894737 0 0 0 53.894737-53.894737v-107.789474a53.894737 53.894737 0 0 0-53.894737-53.894736z m0 161.68421h-161.68421v-107.789474h161.68421v107.789474z m0 107.789474h-161.68421a53.894737 53.894737 0 0 0-53.894737 53.894737V653.473684a53.894737 53.894737 0 0 0 53.894737 53.894737h161.68421a53.894737 53.894737 0 0 0 53.894737-53.894737v-296.421052a53.894737 53.894737 0 0 0-53.894737-53.894737z m0 350.315789h-161.68421v-296.421052h161.68421V653.473684zM458.105263 33.684211H242.526316a53.894737 53.894737 0 0 0-53.894737 53.894736v215.578948a53.894737 53.894737 0 0 0 53.894737 53.894737h215.578947a53.894737 53.894737 0 0 0 53.894737-53.894737v-215.578948a53.894737 53.894737 0 0 0-53.894737-53.894736z m0 269.473684H242.526316v-215.578948h215.578947v215.578948z m0 80.842105H242.526316a53.894737 53.894737 0 0 0-53.894737 53.894737V653.473684a53.894737 53.894737 0 0 0 53.894737 53.894737h215.578947a53.894737 53.894737 0 0 0 53.894737-53.894737v-215.578947a53.894737 53.894737 0 0 0-53.894737-53.894737z m0 269.473684H242.526316v-215.578947h215.578947V653.473684z"  horiz-adv-x="1024" />

    
    <glyph glyph-name="daijinquan" unicode="&#59410;" d="M901.436058 831.220624H66.001715L962.663538-65.429942V769.995191c0 33.8172-27.40721 61.225433-61.22748 61.225433z m-269.978874-395.673621l-15.402805 15.402805-0.181125-0.191358-138.533147 138.548496 34.630729 34.630728 119.308293-119.296013 207.988008 207.976752 34.631752-34.630729-242.441705-242.440681z"  horiz-adv-x="1024" />

    
    <glyph glyph-name="tuodong" unicode="&#58925;" d="M358.4 691.2m-76.8 0a76.8 76.8 0 1 1 153.6 0 76.8 76.8 0 1 1-153.6 0ZM665.6 691.2m-76.8 0a76.8 76.8 0 1 1 153.6 0 76.8 76.8 0 1 1-153.6 0ZM358.4 384m-76.8 0a76.8 76.8 0 1 1 153.6 0 76.8 76.8 0 1 1-153.6 0ZM665.6 384m-76.8 0a76.8 76.8 0 1 1 153.6 0 76.8 76.8 0 1 1-153.6 0ZM358.4 76.8m-76.8 0a76.8 76.8 0 1 1 153.6 0 76.8 76.8 0 1 1-153.6 0ZM665.6 76.8m-76.8 0a76.8 76.8 0 1 1 153.6 0 76.8 76.8 0 1 1-153.6 0Z"  horiz-adv-x="1024" />

    
    <glyph glyph-name="shijian-" unicode="&#58953;" d="M860.5269427033894 732.1152964540128C767.357731533644 825.2845058362072 643.4522873360374 876.6030406075823 511.5883537506234 876.6030406075823c-131.86393358541395 0-255.76937778302002-51.318534771375106-348.93858716521447-144.4877441535695C69.3433394033541 638.8088710595093 18.024806419530364 514.9034268619032 18.024806419530364 383.0394932764892s51.318534771375106-255.76937778302002 144.4877441535695-349.07580496507495c93.16920938219441-93.16920938219441 217.2118695921097-144.4877441535695 348.93858895276577-144.4877441535695 131.86393358541395 0 255.76937778302002 51.455748996133046 349.07580317752354 144.62496016587875 192.37589470517509 192.37589470517509 192.51311071748435 505.50128141280493 0 698.0143921302894m-45.418274842898114-652.5961172873913c-81.09426107572456-81.09426107572456-188.9455122729568-125.82645943217905-303.6575283346255-125.82645943217905-114.71201784922008 0-222.42605303414302 44.73219835645446-303.52031410986757 125.68924341986978-81.09426107572456 81.09426107572456-125.68924341986978 188.9455122729568-125.68924341986978 303.6575301221768 0 114.71201784922008 44.73219835645446 222.56326725890094 125.68924341986978 303.52031232231633 81.09426107572456 81.09426107572456 188.80829626064755 125.68924341986978 303.52031410986757 125.68924341986978s222.42605303414302-44.59498234414522 303.52031232231633-125.68924341986978c167.40270380593114-167.40270380593114 167.40270380593114-439.6379226262527 0.13721601230924768-607.040626432184m-90.28768921166187 182.63360609510335l-170.5586560010822 98.65782306129495V629.8898749481905c0 22.64052941529444-18.386854484323273 41.164599911926956-41.164599911926956 41.16459812437567-22.64052941529444 0-41.164599911926956-18.386854484323273-41.164599911926956-41.16459812437567v-287.877765571319c0-15.230902289172208 18.935714958457677-27.991927082085706 31.285095289546025-35.127125758692024 3.430382432218267-5.07696742972407 12.761026580464799-9.742288610071688 18.524070496632522-13.035456817532001l169.59814927757137-102.77428376750817c19.62179323245262-11.388871820026198 41.0273838996177-4.52810516803837 52.27904149488596 15.09368806441425 11.526087832335445 19.484577220143375 0.9605067235108563 44.59498234414522-18.798500733699722 55.98385416417141m0 0z"  horiz-adv-x="1024" />

    
    <glyph glyph-name="Time" unicode="&#58883;" d="M512.04516 47.965423999999985c185.584476 0 336.034576 150.450099 336.034575 336.034576S697.629636 720.034576 512.04516 720.034576 176.010584 569.584476 176.010584 384 326.460684 47.965423999999985 512.04516 47.965423999999985z m0-48.004939C299.951841-0.03951500000005126 128.005645 171.90668100000005 128.005645 384S299.951841 768.0395149999999 512.04516 768.0395149999999 896.084675 596.0933190000001 896.084675 384 724.138479-0.03951500000005126 512.04516-0.03951500000005126zM512.04516 384m-230.428225 0a230.428225 230.428225 0 1 1 460.85645 0 230.428225 230.428225 0 1 1-460.85645 0Z"  horiz-adv-x="1024" />

    
    <glyph glyph-name="danhangwenben" unicode="&#59092;" d="M636.928 201.728H387.072v21.504c11.264 4.096 22.528 7.168 33.792 10.24 11.264 3.072 23.04 5.632 35.84 7.168V677.376H361.472l-39.936-104.96h-18.432c-1.536 9.728-2.56 20.992-4.096 33.792s-1.536 24.576-2.56 38.4c-1.024 12.8-1.536 25.6-1.536 38.4s-1.024 24.064-1.024 33.792h435.2c0-9.728 0-20.992-1.024-32.768-1.024-11.776-1.024-24.576-1.536-37.376l-2.56-38.4c-1.024-12.8-1.536-24.064-3.072-34.304H701.44l-39.424 104.96h-94.208v-436.736c12.8-2.56 24.576-4.608 35.84-7.168 11.264-2.56 22.528-5.632 32.768-10.24v-23.04zM882.688-128H133.632C59.904-128 0-71.168 0-1.024V762.368C0 833.024 60.416 896 134.656 896h755.2C963.584 896 1024 838.144 1024 768v-768c0-70.656-67.072-128-141.312-128z m74.24 896c0 35.328-30.208 64-67.072 64H134.656C97.28 832 66.56 797.696 66.56 762.368v-763.392c0-35.328 30.208-64 67.072-64h749.056c36.864 0 73.216 29.696 73.216 64V768h1.024z m-176.128-726.528h-537.6c-18.432 0-33.792 14.336-33.792 32.256 0 17.408 15.36 32.256 33.792 32.256h538.112c18.432 0 33.792-14.336 33.792-32.256-0.512-17.92-15.36-32.256-34.304-32.256z"  horiz-adv-x="1024" />

    
    <glyph glyph-name="duoxuan" unicode="&#59309;" d="M768 768l-0.042667-128H896v-640H256v128H128V768h640z m64-192h-512v-512h512v512z m-128 128h-512v-512H256V640h447.957333l0.042667 64z m-15.786667-277.333333l45.226667-45.226667-176.810667-176.981333-108.629333 110.677333 45.653333 44.8 63.36-64.512L688.213333 426.666667z"  horiz-adv-x="1024" />

    
    <glyph glyph-name="shuzi" unicode="&#59895;" d="M507.904 626.688H441.856c-3.584 0-6.144-3.072-6.144-6.144v-355.328h-6.144L183.296 624.128c-1.024 1.536-3.072 2.56-5.12 2.56H108.544c-3.584 0-6.144-3.072-6.144-6.144v-484.864c0-3.584 3.072-6.144 6.144-6.144H174.08c3.584 0 6.144 3.072 6.144 6.144V496.128h6.144L435.2 132.096c1.024-1.536 3.072-2.56 5.12-2.56h67.072c3.584 0 6.144 3.072 6.144 6.144V620.544c0.512 3.584-2.048 6.144-5.632 6.144z m394.752-431.104h-317.44c-4.608 0-8.192-3.584-8.192-8.192v-50.176c0-4.608 3.584-8.192 8.192-8.192h317.44c4.608 0 8.192 3.584 8.192 8.192v50.176c0.512 4.096-3.584 8.192-8.192 8.192z m-158.72 65.536c55.296 0 99.328 17.92 132.096 54.272 30.72 34.304 46.08 79.36 46.08 134.656s-15.36 100.864-46.08 135.168c-32.256 36.352-76.288 54.784-132.096 54.784-56.32 0-100.352-18.432-132.096-55.296-30.72-34.816-45.568-79.36-45.568-134.656 0-54.784 14.848-99.328 45.568-134.144 32.256-36.352 76.288-54.784 132.096-54.784z m-74.752 275.456c17.408 21.504 41.984 32.256 74.752 32.256s57.344-10.24 74.24-30.208c16.896-20.992 26.112-50.688 26.112-88.576s-8.704-67.072-26.112-87.552c-17.408-20.48-41.984-30.72-74.24-30.72-32.768 0-57.344 10.752-74.752 31.744-16.896 20.992-25.6 49.664-25.6 86.528 0 37.376 8.192 65.536 25.6 86.528z"  horiz-adv-x="1024" />

    
    <glyph glyph-name="riqi1" unicode="&#59222;" d="M672 832a32 32 0 0 0 32-32V768h128a128 128 0 0 0 128-128v-576a128 128 0 0 0-128-128H192a128 128 0 0 0-128 128V640a128 128 0 0 0 128 128h128v32a32 32 0 0 0 64 0V768h256v32a32 32 0 0 0 32 32zM896 512H128v-448a64 64 0 0 1 56.512-63.552L192 0h640a64 64 0 0 1 63.552 56.512L896 64V512z m-608-256a32 32 0 1 0 0-64h-64a32 32 0 1 0 0 64h64z m256 0a32 32 0 1 0 0-64h-64a32 32 0 1 0 0 64h64z m256 0a32 32 0 1 0 0-64h-64a32 32 0 1 0 0 64h64z m-512 128a32 32 0 0 0 0-64h-64a32 32 0 0 0 0 64h64z m256 0a32 32 0 0 0 0-64h-64a32 32 0 0 0 0 64h64z m256 0a32 32 0 1 0 0-64h-64a32 32 0 1 0 0 64h64zM320 704H192a64 64 0 0 1-63.552-56.512L128 640v-64h768V640a64 64 0 0 1-56.512 63.552L832 704h-128v-32a32 32 0 1 0-64 0V704H384v-32a32 32 0 0 0-64 0V704z"  horiz-adv-x="1024" />

    
    <glyph glyph-name="duohang" unicode="&#58887;" d="M882.176 896H141.824C75.776 896 24.576 845.312 24.576 778.752v-789.504c0-66.56 50.688-117.248 116.736-117.248h739.84c66.048 0 116.736 50.688 116.736 117.248V778.752c1.024 66.56-49.664 117.248-115.712 117.248z m55.808-873.472c0-45.056-34.816-81.92-78.336-81.92h-696.32c-43.008 0-78.336 36.864-78.336 81.92v727.04c0 45.056 35.328 81.92 78.336 81.92h696.32c43.008 0 78.336-36.864 78.336-81.92v-727.04zM813.056 422.912h-223.744c-24.576 0-40.448-15.872-40.448-38.912v-7.68c0-23.552 16.384-38.912 40.448-38.912h223.744c24.576 0 40.448 15.872 40.448 38.912V384c0.512 23.552-19.968 38.912-40.448 38.912zM158.208 505.344l40.448 54.784h105.984v-378.88H231.424v-54.784h207.36v54.784H369.664v378.88h101.888l40.448-54.784V645.632H158.208zM813.056 239.616h-223.744c-24.576 0-40.448-15.872-40.448-38.912v-7.68c0-23.552 16.384-38.912 40.448-38.912h223.744c24.576 0 40.448 15.872 40.448 38.912v7.68c0.512 23.04-19.968 38.912-40.448 38.912zM813.056 610.816h-223.744c-24.576 0-40.448-15.872-40.448-38.912v-7.68c0-23.552 16.384-38.912 40.448-38.912h223.744c24.576 0 40.448 15.872 40.448 38.912v7.68c0.512 19.456-19.968 38.912-40.448 38.912z"  horiz-adv-x="1024" />

    
    <glyph glyph-name="xialadanxuan" unicode="&#58931;" d="M0 896h1024v-1024H0zM938.666667 810.666667a56.888889 56.888889 0 0 0 56.888889-56.888889v-739.555556a56.888889 56.888889 0 0 0-56.888889-56.888889H85.333333a56.888889 56.888889 0 0 0-56.888889 56.888889V753.777778a56.888889 56.888889 0 0 0 56.888889 56.888889h853.333334z m-28.444445-156.444445H113.777778a28.444444 28.444444 0 0 1-28.444445-28.444444V42.666667a28.444444 28.444444 0 0 1 28.444445-28.444445h796.444444a28.444444 28.444444 0 0 1 28.444445 28.444445V625.777778a28.444444 28.444444 0 0 1-28.444445 28.444444zM671.715556 388.323556l-141.198223-166.058667a21.589333 21.589333 0 0 0-16.696889-8.135111 21.589333 21.589333 0 0 0-16.696888 8.135111l-141.198223 166.058667a29.752889 29.752889 0 0 0-5.461333 29.326222 26.567111 26.567111 0 0 0 22.158222 18.090666h282.282667a26.453333 26.453333 0 0 0 22.243555-18.033777c3.584-10.126222 1.450667-21.504-5.432888-29.383111z"  horiz-adv-x="1024" />

    
    <glyph glyph-name="no_datas" unicode="&#59112;" d="M601.6-128V358.4l486.4 204.8v-505.6zM128 57.60000000000002l473.6-185.6V358.4L121.6 563.2zM782.5472 752l11.2448 128-44.992-32zM855.68 896l-56.2432-160 123.7312 101.3312zM934.4 794.6688L827.52 736l95.6096 10.6688zM601.6 371.20000000000005l-121.6-256L0 300.79999999999995l121.6 262.4zM601.6 748.8L121.6 563.2l480-198.4V748.8zM1081.6 563.2L601.6 748.8v-384zM601.6 364.79999999999995l128-249.6 480 192-128 256z"  horiz-adv-x="1209" />

    
    <glyph glyph-name="statisticAnalysis" unicode="&#58990;" d="M1000 128c13.2 0 24-10.8 24-24v-80c0-13.2-10.8-24-24-24H24c-13.2 0-24 10.8-24 24V744c0 13.2 10.8 24 24 24h80c13.2 0 24-10.8 24-24v-616h872zM745.4 577L576 464l-170.6 227.4c-10.2 13.6-31 12.6-39.8-2L192 400v-208h768l-179.8 375.6c-6.4 13-22.8 17.4-34.8 9.4z"  horiz-adv-x="1024" />

    
    <glyph glyph-name="home" unicode="&#58969;" d="M875.936291 660.55771h-137.808646v72.576969c0 44.439118-37.440727 80.586386-83.466993 80.586386H379.865075c-46.032406 0-83.473133-36.147268-83.473133-80.586386v-72.570829h-149.95529c-46.019103 0-83.461877-36.144198-83.461877-80.591503v-543.119765c0-44.445258 37.442774-80.586386 83.461877-80.586386h729.500663c46.037523 0 83.488483 36.141128 83.488482 80.586386v543.119765c-0.001023 44.446281-37.45096 80.585363-83.489506 80.585363z m-524.743232 72.576969c0 15.250332 12.859889 27.672246 28.672016 27.672246h274.795577c15.795754 0 28.67611-12.421914 28.67611-27.672246v-72.576969H351.193059v72.576969z m360.985588-505.875513H595.345732v-114.00552H439.185112V227.25916600000005H319.893192V378.04231100000004h119.290897V492.034529H595.344708v-114.008591h116.832916v-150.766772z"  horiz-adv-x="1024" />

    
    <glyph glyph-name="boshi" unicode="&#59030;" d="M995.328 561.152l28.672 15.36-512 259.072-512-272.384 512-260.096 421.888 225.28V281.6L904.192 242.688l58.368-79.872 61.44 81.92-28.672 39.936zM163.84 386.048v-289.792l348.16-161.792 348.16 161.792V386.048l-348.16-164.864z"  horiz-adv-x="1027" />

    
    <glyph glyph-name="CasesOfSearch" unicode="&#58880;" d="M678.586182 238.452364a104.727273 104.727273 0 1 1 0.046545-209.454546 104.727273 104.727273 0 0 1-0.046545 209.454546zM846.894545 872.727273H177.105455C138.565818 872.727273 107.287273 841.402182 107.287273 802.909091v-837.818182c0-38.493091 31.278545-69.818182 69.818182-69.818182h669.78909c6.330182 0 12.427636 0.884364 18.33891 2.420364l-90.437819 90.437818a174.498909 174.498909 0 0 0-270.754909 145.640727 174.498909 174.498909 0 0 0 174.545455 174.545455 174.498909 174.498909 0 0 0 145.640727-270.801455l90.205091-90.298181c1.536 5.678545 2.327273 11.636364 2.327273 17.873454V802.909091c0 38.493091-31.325091 69.818182-69.818182 69.818182zM466.850909 394.053818a34.816 34.816 0 0 0-24.669091-10.24L302.545455 384a34.816 34.816 0 1 0-24.669091 59.578182 34.816 34.816 0 0 0 24.669091 10.24l139.729454-0.232727c19.223273 0 34.909091-15.685818 34.909091-34.909091a35.374545 35.374545 0 0 0-10.333091-24.669091z m279.272727 139.822546a34.816 34.816 0 0 0-24.669091-10.24h-418.90909a34.816 34.816 0 1 0-24.669091 59.578181 34.816 34.816 0 0 0 24.669091 10.24h418.90909a34.816 34.816 0 1 0 24.669091-59.578181z m0 139.636363a34.816 34.816 0 0 0-24.669091-10.24h-418.90909a34.816 34.816 0 1 0-24.669091 59.578182 34.816 34.816 0 0 0 24.669091 10.24h418.90909a34.816 34.816 0 1 0 24.669091-59.578182z"  horiz-adv-x="1024" />

    
    <glyph glyph-name="ConfigManagement" unicode="&#59083;" d="M898.599385 104.68430799999999l-200.585847 198.104615c12.918154 27.175385 20.086154 57.501538 20.086154 89.324308 0 115.003077-92.868923 207.950769-207.950769 207.950769-19.140923 0-37.927385-2.56-55.532308-7.483077l89.009231-88.694154c36.864-37.179077 34.067692-99.367385-6.025846-139.342769-39.857231-39.739077-102.360615-42.535385-139.224615-5.986462L309.563077 447.921231c-4.923077-17.723077-7.483077-36.352-7.483077-55.808 0-115.2 93.184-208.580923 208.068923-208.580923 31.625846 0 62.306462 7.286154 89.009231 20.322461l199.719384-198.577231c25.560615-24.969846 68.096-23.473231 95.428924 4.332308 27.254154 27.096615 29.184 70.065231 4.292923 95.074462z m-53.878154-80.777846a35.800615 35.800615 0 0 0-35.682462 35.446153c0 19.022769 16.344615 34.658462 35.682462 34.658462 19.574154 0 35.288615-15.635692 35.288615-34.658462 0-19.652923-15.753846-35.446154-35.288615-35.446153z m101.966769 460.524307h-20.322462l-47.340307 0.433231h-0.315077a58.564923 58.564923 0 0 0-26.505846 9.412923c-0.512 0-0.748308 0.236308-1.063385 0.630154a61.164308 61.164308 0 0 0-27.687385 51.987692c0 6.813538 1.417846 12.996923 3.544616 19.416616 1.929846 6.813538 5.356308 13.469538 9.924923 19.022769l10.476308 10.673231 23.630769 23.276307 13.902769 14.139077a72.979692 72.979692 0 0 1-0.787692 89.757539L843.618462 764.849231c-27.057231 20.716308-64.354462 21.346462-90.742154 1.260307l-14.769231-14.099692-32.886154-33.752615h-0.433231a61.833846 61.833846 0 0 0-63.251692-8.349539 66.993231 66.993231 0 0 0-19.574154 13.272616 65.654154 65.654154 0 0 0-17.408 36.548923V828.100923a72.467692 72.467692 0 0 1-64.196923 63.015385h-57.934769a73.846154 73.846154 0 0 1-64.787692-62.621539v-67.741538c-0.196923-1.693538-0.827077-3.584-0.945231-5.12v-0.630154c-0.551385-1.693538-0.787692-3.426462-0.945231-4.923077-0.669538 0-0.669538-0.630154-0.669538-0.630154-0.630154-1.496615-0.945231-3.859692-1.811693-4.923077-0.512-1.890462-1.575385-3.426462-2.441846-5.12v-0.196923c-3.544615-7.286154-8.467692-13.469538-15.084308-18.825846a62.030769 62.030769 0 0 0-78.651077-1.260308l-10.555076 10.633846-23.512616 23.11877-14.336 14.532923a72.861538 72.861538 0 0 1-89.796923-1.063385L137.373538 725.3070769999999a73.924923 73.924923 0 0 1-1.299692-90.190769l14.296616-14.099693 33.555692-33.358769 1.851077-2.993231c0.393846-0.196923 0.827077-1.063385 1.693538-2.126769 0.393846-0.630154 0.866462-1.929846 1.496616-2.756923 0-0.236308 1.063385-1.299692 1.063384-1.969231 0.630154-0.827077 1.299692-2.323692 2.048-3.387077 0-0.630154 0.196923-1.299692 0.512-1.929846 0.630154-0.866462 0.866462-2.363077 1.811693-3.623384 0-0.433231 0.118154-1.063385 0.315076-1.732923 0.236308-1.890462 1.181538-3.426462 1.181539-5.316924 0.551385-1.969231 0.866462-3.623385 0.866461-5.55323 2.678154-18.392615-3.544615-37.612308-17.84123-51.751385a61.046154 61.046154 0 0 0-36.627693-17.723077H74.436923a73.806769 73.806769 0 0 1-63.172923-64.118154l-0.196923-58.328615a72.467692 72.467692 0 0 1 62.621538-64.354462h20.401231l47.261539-0.630153c1.693538-0.196923 4.056615-0.196923 5.632-0.866462h1.614769c1.496615-0.630154 2.363077-1.063385 4.056615-1.260308a62.542769 62.542769 0 0 0 30.444308-98.73723l-10.358154-10.043077-23.827692-23.315693-14.178462-14.099692A74.24 74.24 0 0 1 135.483077 61.046154l41.353846-41.629539c26.387692-20.952615 63.409231-21.188923 90.190769-0.866461l14.099693 14.099692 33.870769 33.122462c0 0.393846 0.354462 0.393846 0.787692 0.630154 1.260308 1.299692 2.638769 1.969231 3.623385 3.229538 1.181538 0.196923 1.378462 0.196923 2.244923 0.827077 0.630154 0.433231 1.693538 1.299692 2.56 1.969231 1.181538 0.590769 2.678154 0.827077 3.859692 1.45723 0.748308 0.433231 1.260308 0.669538 1.496616 1.10277 1.811692 0.196923 2.993231 0.827077 5.316923 1.45723 2.048 0.669538 3.426462 1.496615 4.923077 1.496616h0.551384c1.575385 0.433231 3.308308 0.669538 5.12 1.102769h0.393846c1.536 0 3.032615 0 4.332308 0.630154a62.621538 62.621538 0 0 0 47.655385-18.589539c10.633846-10.24 16.226462-23.512615 18.038153-37.021538l-0.236307-14.493538v-53.011693c4.096-33.555692 30.72-59.864615 63.921231-63.251692h58.446769a72.625231 72.625231 0 0 1 64.354461 62.227692v20.086154l0.512 34.146462v13.469538c1.299692 12.209231 5.671385 22.212923 12.406154 31.192615 0.630154 1.102769 1.260308 1.732923 1.929846 2.363077 0.393846 0.236308 0.945231 1.496615 1.929846 1.929847 3.741538 4.056615 7.916308 7.719385 12.484924 10.909538a9.019077 9.019077 0 0 1 3.623384 1.929846c1.063385 0.630154 1.063385 0.630154 1.496616 0.630154 0.669538 0.196923 1.063385 0.196923 1.181538 0.196923 1.181538 0.866462 2.166154 0.866462 3.544615 1.496615l-55.926153 55.808a272.108308 272.108308 0 0 0-76.169847-10.476307c-151.236923 0.196923-273.053538 122.643692-272.502153 273.092923a273.132308 273.132308 0 0 0 273.880615 273.171692 273.408 273.408 0 0 0 272.305231-273.998769 267.185231 267.185231 0 0 0-10.791385-74.161231l56.32-55.335384a70.498462 70.498462 0 0 0 12.603077 18.116923c5.750154 5.592615 13.469538 9.846154 20.48 12.603077 5.277538 2.363077 10.712615 4.096 15.950769 4.726153h68.174769a73.137231 73.137231 0 0 1 63.015385 63.921231v58.958769a72.467692 72.467692 0 0 1-62.148923 64.118154z"  horiz-adv-x="1024" />

    
    <glyph glyph-name="PM" unicode="&#58913;" d="M1014.983111 238.73422200000005a41.102222 41.102222 0 0 1-56.632889 12.231111L509.610667-38.17244400000004 63.175111 249.54311099999995a41.102222 41.102222 0 0 1-56.661333-12.231111 41.102222 41.102222 0 0 1 12.231111-56.661333l466.944-300.942223c3.271111-2.275556 6.826667-4.152889 10.524444-5.432888 0.284444-0.142222 0.455111-0.142222 0.568889-0.284445 0.284444-0.142222 0.455111-0.142222 0.853334-0.284444 0.455111-0.142222 0.853333-0.284444 1.308444-0.284445h0.142222c3.128889-0.853333 6.4-1.28 9.528889-1.422222h1.848889c3.128889 0.142222 6.542222 0.568889 9.528889 1.422222h0.170667a4.067556 4.067556 0 0 0 1.28 0.284445c0.284444 0.142222 0.568889 0.142222 0.853333 0.284444 0.284444 0.142222 0.426667 0.142222 0.568889 0.284445 3.697778 1.28 7.253333 3.128889 10.524444 5.404444L1002.752 182.044444a40.96 40.96 0 0 1 12.231111 56.689778zM1014.983111 404.707556a41.102222 41.102222 0 0 1-56.632889 12.231111l-448.739555-288.995556-446.435556 287.573333a41.102222 41.102222 0 0 1-56.661333-12.231111 41.102222 41.102222 0 0 1 12.231111-56.661333l466.944-300.942222c3.271111-2.275556 6.826667-4.124444 10.524444-5.404445 0.284444-0.142222 0.455111-0.142222 0.568889-0.284444 0.284444-0.142222 0.568889-0.142222 0.853334-0.284445 0.455111-0.142222 0.853333-0.284444 1.308444-0.284444h0.142222c3.128889-0.853333 6.4-1.28 9.528889-1.422222h1.848889c3.128889 0.142222 6.542222 0.568889 9.528889 1.422222h0.170667a4.039111 4.039111 0 0 0 1.28 0.284444c0.284444 0.142222 0.568889 0.142222 0.853333 0.284445 0.284444 0.142222 0.426667 0.142222 0.568889 0.284444 3.697778 1.28 7.253333 3.128889 10.524444 5.404445L1002.609778 347.87555599999996a41.073778 41.073778 0 0 1 12.373333 56.803555zM1002.752 585.216L533.532444 887.5804439999999a43.292444 43.292444 0 0 1-10.524444 5.432889c-0.284444 0.142222-0.426667 0.142222-0.568889 0.284445-0.284444 0.142222-0.568889 0.142222-0.853333 0.284444a4.124444 4.124444 0 0 1-1.308445 0.284445h-0.113777a43.975111 43.975111 0 0 1-9.557334 1.422222h-1.848889a42.666667 42.666667 0 0 1-9.528889-1.422222h-0.142222c-0.426667-0.142222-0.853333-0.284444-1.28-0.284445-0.284444-0.142222-0.568889-0.142222-0.853333-0.284444-0.284444-0.142222-0.426667-0.142222-0.568889-0.284445-3.697778-1.28-7.281778-3.128889-10.524444-5.404444L18.858667 586.666667c-12.8-8.248889-19.484444-22.499556-18.631111-36.750223-0.853333-14.222222 5.973333-28.615111 18.631111-36.721777l466.944-300.942223c3.271111-2.275556 6.826667-4.124444 10.524444-5.404444 0.284444-0.170667 0.455111-0.170667 0.568889-0.284444 0.284444-0.170667 0.455111-0.170667 0.853333-0.284445 0.455111-0.170667 0.853333-0.284444 1.308445-0.284444h0.142222c3.128889-0.853333 6.4-1.308444 9.528889-1.422223h1.848889a42.666667 42.666667 0 0 1 9.557333 1.422223h0.113778c0.455111 0.113778 0.853333 0.284444 1.308444 0.284444 0.284444 0.113778 0.568889 0.113778 0.853334 0.284445 0.284444 0.113778 0.426667 0.113778 0.568889 0.284444 3.697778 1.28 7.253333 3.128889 10.524444 5.404444l469.219556 302.364445c12.373333 7.964444 19.057778 21.504 18.773333 35.299555a40.903111 40.903111 0 0 1-18.773333 35.299556z"  horiz-adv-x="1024" />

    
    <glyph glyph-name="knowledgeLibrary" unicode="&#59152;" d="M175.36 896h-28.501333A82.901333 82.901333 0 0 1 64 813.312v-858.624A82.901333 82.901333 0 0 1 146.858667-128h28.501333V896z m701.781333 0h-54.314666v-300.842667L686.933333 721.066667l-135.808-125.781334V896H233.216v-1024h643.797333A82.901333 82.901333 0 0 1 960-45.31200000000001V813.312A82.901333 82.901333 0 0 1 877.141333 896z m-34.133333-701.738667H349.056a21.674667 21.674667 0 0 0 0 43.221334h494.165333a21.674667 21.674667 0 0 0 0-43.221334z m0 168.32H349.056a21.674667 21.674667 0 0 0 0 43.221334h494.165333a21.674667 21.674667 0 0 0 0-43.136z"  horiz-adv-x="1024" />

    
    <glyph glyph-name="weijingke-S" unicode="&#59295;" d="M637.165992 842.715586c-124.804741 0-254.175686-42.165131-241.055077-222.674663-35.561476 13.38071-77.387032 41.623255-93.253143 101.157299a51.745488 51.745488 0 0 1-43.761857 38.075778c2.254202-38.856078 23.777492-144.622931 185.798236-204.532675 88.549665-35.351951 144.557906-84.380837 166.940972-145.916207 17.657913-48.566486 9.667057-92.711268 1.401651-118.677937 21.039215-12.585959 35.193001-35.532576 35.193001-61.78102 0-39.715854-32.310224-72.026078-72.026078-72.026078s-72.026078 32.310224-72.026078 72.026078c0 39.145079 31.407098 71.029027 70.335427 71.939378 6.502505 19.738714 14.038185 56.203316-0.4335 95.47122-18.496014 50.199337-66.831299 91.201242-143.654781 121.878614-172.005701 63.594497-204.87225 176.651379-210.442729 230.419869a51.593763 51.593763 0 0 1-17.340012-53.501165c33.9214-127.282918 141.248853-175.285853 215.348507-187.026487 22.462541-77.965032 19.001764-141.451154 5.071954-193.138841l-0.0289 0.0867a97.060721 97.060721 0 0 0-1.184901-4.667353c-18.806689-64.923898-92.241643-82.32171-130.40412-87.025189-78.369632 16.906512-115.946885-19.008989-131.697397-42.779256-43.089932-64.923898-12.087434-168.992874 38.993354-233.952897a51.600988 51.600988 0 0 1 40.727355-19.753164 51.174712 51.174712 0 0 1 31.956198 11.075933 51.796063 51.796063 0 0 1 8.742256 72.690778c-13.879235 17.672363-23.365667 37.187102-29.319071 55.003965-9.284132 27.78737 18.409313 71.614252 63.211571 71.845453 32.035673 0.166175 75.39293-6.516955 130.281296-29.745347 37.707303-15.562661 139.652127-9.002357 175.892753 5.144204 73.788979 28.806096 112.327157 75.927581 132.911198 96.511621 62.337346 70.942327 106.438778 167.880223 122.109814 276.696027 32.642574 226.337741-91.302392 357.175362-238.287899 357.175362zM576.418147 228.366161m-25.063543 0a25.063543 25.063543 0 1 1 50.127087 0 25.063543 25.063543 0 1 1-50.127087 0Z"  horiz-adv-x="1024" />

    
    <glyph glyph-name="nzlc" unicode="&#58886;" d="M462.08 108.768 561.92 108.768l0 99.84L462.08 208.608 462.08 108.768 462.08 108.768zM312.32 258.528l99.84 0 0 99.84L312.32 358.368 312.32 258.528 312.32 258.528zM312.32 108.768l99.84 0 0 99.84L312.32 208.608 312.32 108.768 312.32 108.768zM811.52 707.808l-99.776 0 0-49.92c0-27.584-22.528-49.92-49.984-49.92-27.584 0-49.792 22.336-49.792 49.92l0 49.92L412.16 707.808l0-49.92c0-27.584-22.336-49.92-49.92-49.92-27.584 0-49.92 22.336-49.92 49.92l0 49.92L212.416 707.808c-55.104 0-99.84-44.736-99.84-99.84l0-599.104c0-55.232 44.736-99.904 99.84-99.904l599.04 0c55.232 0 99.904 44.608 99.904 99.904L911.36 607.968C911.36 663.072 866.752 707.808 811.52 707.808L811.52 707.808zM811.52 58.72c0-27.584-22.336-49.856-49.856-49.856L262.4 8.864c-27.584 0-49.92 22.336-49.92 49.856L212.48 408.224c0 27.648 22.4 49.92 49.92 49.92L761.6 458.144c27.584 0 49.856-22.336 49.856-49.92L811.456 58.72 811.52 58.72zM611.968 258.528l99.84 0 0 99.84-99.84 0L611.968 258.528 611.968 258.528zM462.08 258.528 561.92 258.528l0 99.84L462.08 358.368 462.08 258.528 462.08 258.528zM611.968 108.768l99.84 0 0 99.84-99.84 0L611.968 108.768 611.968 108.768zM611.968 108.768"  horiz-adv-x="1024" />

    
    <glyph glyph-name="shijian1" unicode="&#59674;" d="M511.573333 810.666667C276.053333 810.666667 85.333333 619.52 85.333333 384s190.72-426.666667 426.24-426.666667C747.52-42.666667 938.666667 148.48 938.666667 384S747.52 810.666667 511.573333 810.666667zM693.333333 206.933333 469.333333 341.333333 469.333333 597.333333l64 0 0-224 192-113.92L693.333333 206.933333z"  horiz-adv-x="1024" />

    
    <glyph glyph-name="riqi" unicode="&#58923;" d="M819.2 793.6H896a128 128 0 0 0 128-128V0a128 128 0 0 0-128-128H128a128 128 0 0 0-128 128V665.6a128 128 0 0 0 128 128h76.8v-74.88a76.8 76.8 0 1 1 153.6 0V793.6h307.2v-74.88a76.8 76.8 0 0 1 153.6 0z m-704-238.08a64 64 0 0 1-64-64v-504.96a64 64 0 0 1 64-64h793.6a64 64 0 0 1 64 64V491.52a64 64 0 0 1-64 64zM288 896a32 32 0 0 0 32-32v-140.8a32 32 0 0 0-32-32 32 32 0 0 0-32 32V864a32 32 0 0 0 32 32zM748.8 896a32 32 0 0 0 32-32v-140.8a32 32 0 0 0-32-32 32 32 0 0 0-32 32V864a32 32 0 0 0 32 32zM153.6 384H256v-102.4H153.6z m204.8 0h102.4v-102.4H358.4z m204.8 0h102.4v-102.4H563.2zM768 384h102.4v-102.4H768z m-614.4-204.8H256v-102.4H153.6z m204.8 0h102.4v-102.4H358.4z m204.8 0h102.4v-102.4H563.2z m204.8 0h102.4v-102.4H768z"  horiz-adv-x="1024" />

    
    <glyph glyph-name="zhuyuan" unicode="&#59025;" d="M298.666667 341.333333c70.826667 0 128 57.173333 128 128S369.493333 597.333333 298.666667 597.333333s-128-57.173333-128-128 57.173333-128 128-128z m512 256h-341.333334v-298.666666H128V682.666667H42.666667v-640h85.333333v128h768v-128h85.333333v384c0 94.293333-76.373333 170.666667-170.666666 170.666666z"  horiz-adv-x="1024" />

    
    <glyph glyph-name="huanzhexinxi" unicode="&#58892;" d="M655.5 342.7h252c21.3 0 38.5 17.2 38.5 38.5s-17.2 38.5-38.5 38.5h-252c-21.3 0-38.5-17.2-38.5-38.5s17.2-38.5 38.5-38.5zM732.5 496.7h175c21.2 0 38.5 17.2 38.5 38.5s-17.2 38.5-38.5 38.5h-175c-21.3 0-38.5-17.3-38.5-38.5s17.2-38.5 38.5-38.5zM482.1 346v19.4C556.4 402.1 608 481.7 608 574.2c0 127.2-97.5 230.4-217.8 230.4-120.3 0-217.8-103.2-217.8-230.5 0-92.5 51.6-172.1 126-208.7V346C170.8 309.8 78 200.1 78 70.3c0-11.9 0.9-23.8 2.5-35.6H305l178.6 310.8c-0.5 0.2-1 0.4-1.5 0.5zM497.3 341.3c45.3-33.1 46.1-123.1-0.4-203.6-42.1-72.9-100.6-98.9-158.3-102.9h361.5c1.6 11.6 2.4 23.5 2.4 35.6 0 124.4-85.5 230.5-205.2 270.9zM907.5 265.7H771c-21.3 0-38.5-17.2-38.5-38.5s17.2-38.5 38.5-38.5h136.5c21.3 0 38.5 17.2 38.5 38.5s-17.3 38.5-38.5 38.5z"  horiz-adv-x="1024" />

    
    <glyph glyph-name="zhongdian" unicode="&#59008;" d="M756.869565 806.956522c-75.686957 0-142.469565 17.808696-191.443478 44.521739-44.521739 26.713043-115.756522 44.521739-191.443478 44.521739-75.686957 0-142.469565-31.165217-191.443479-57.878261V361.73913c44.521739 26.713043 115.756522 57.878261 191.443479 57.878261s142.469565-17.808696 191.443478-44.521739c44.521739-26.713043 115.756522-44.521739 191.443478-44.521739s142.469565 35.617391 191.443478 57.878261V864.834783C903.791304 838.121739 837.008696 806.956522 756.869565 806.956522zM97.947826 891.547826C84.591304 891.547826 75.686957 887.095652 66.782609 878.191304S53.426087 860.382609 53.426087 851.478261v-934.956522c0-22.26087 17.808696-44.521739 44.521739-44.521739s44.521739 17.808696 44.521739 44.521739V851.478261c0 13.356522-4.452174 22.26087-13.356522 31.165217S106.852174 891.547826 97.947826 891.547826z"  horiz-adv-x="1024" />

    
    <glyph glyph-name="renyuanxinxi" unicode="&#59080;" d="M887 714.9H137c-22 0-40-18-40-40v-581.8c0-22 18-40 40-40h750c22 0 40 18 40 40V674.9c0 22-18 40-40 40zM362.5 583.4c67.7 0 122.8-55.1 122.8-122.7S430.2 338 362.5 338s-122.7 55.1-122.7 122.7 55 122.7 122.7 122.7z m91.1-398.8H271.4c-44.1 0-75.1 2.5-92.4 4.9 4.8 64.3 39.3 119.8 88.9 151.3 26.2-20.6 58.7-33.5 94.6-33.5s68.5 12.8 94.6 33.5c49.7-31.6 84.2-87 88.9-151.3-17.3-2.4-48.3-4.9-92.4-4.9z m361.3 34.1H634c-16.6 0-30.1 13.6-30.1 30.1 0 16.6 13.6 30.1 30.1 30.1h180.9c16.6 0 30.2-13.6 30.1-30.1 0-16.5-13.5-30.1-30.1-30.1z m0 120.6H634c-16.6 0-30.1 13.6-30.1 30.1 0 16.6 13.6 30.1 30.1 30.1h180.9c16.6 0 30.2-13.6 30.1-30.1 0-16.5-13.5-30.1-30.1-30.1z m0 120.7H634c-16.6 0-30.1 13.6-30.1 30.1 0 16.6 13.6 30.1 30.1 30.1h180.9c16.6 0 30.2-13.6 30.1-30.1 0-16.6-13.5-30.1-30.1-30.1z"  horiz-adv-x="1024" />

    
    <glyph glyph-name="yuandianxiao" unicode="&#59223;" d="M464.8672999 431.1327001m-235.66350047 0a3.68224221 3.68224221 0 1 1 471.32700093 0 3.68224221 3.68224221 0 1 1-471.32700093 0Z"  horiz-adv-x="1024" />

    
    <glyph glyph-name="guolvxuanzhong" unicode="&#58933;" d="M512 834c248.535 0 450-201.465 450-450s-201.465-450-450-450S62 135.46500000000003 62 384 263.465 834 512 834z m90-630H422a45 45 0 0 1 0-90h180a45 45 0 0 1 0 90z m45 180H377a45 45 0 0 1 0-90h270a45 45 0 0 1 0 90z m45 180H332a45 45 0 1 1 0-90h360a45 45 0 0 1 0 90z"  horiz-adv-x="1024" />

    
    <glyph glyph-name="mima" unicode="&#58882;" d="M1082.54751644-237.37837037000008H194.97971316c-49.03063703 0-88.83768889 37.05615762-88.83768888 82.85044978v621.37837037c0 45.79429095 39.80705185 82.85044978 88.83768888 82.85044858h887.72962016c49.03063703 0 88.83768889-37.05615762 88.83768889-82.85044858v-621.37837037c-0.16181689-45.63247408-39.96886873-82.85044978-88.99950577-82.85044978zM638.68270576 342.57477571000004c-73.62686461 0-133.17562429-55.66514608-133.17562429-124.27567407 0-45.79429095 27.02348683-85.60134281 66.5069037-106.9612255v-118.28843376c0-35.76162016 29.77437984-64.72691317 66.5069037-64.72691439 36.73252386 0 66.5069037 28.96529423 66.50690371 64.72691439v118.28843376c39.64523498 21.52169836 66.5069037 61.16693333 66.50690371 106.9612255 0.32363498 68.61052799-59.22512592 124.27567408-132.85199053 124.27567407z m0 538.52792059c-147.09191111 0-266.35124978-111.33029095-266.35124858-248.55134815h-133.1756255c0 205.83158518 178.80809836 372.82702222 399.52687408 372.82702222S1038.20957983 838.54475022 1038.20957983 632.55134815h-133.17562429C905.03395554 769.93422222 785.77461687 881.1026963 638.68270576 881.1026963z m0 0"  horiz-adv-x="1290" />

    
    <glyph glyph-name="yonghuming" unicode="&#58930;" d="M208.98848 593.472A302.4 302.4 0 1 1 511.06848 896.064a302.656 302.656 0 0 1-302.08-302.592z m0 0l594.56-300.8a60.672 60.672 0 0 1-80.64-5.12 300.8 300.8 0 0 0-426.88 0 58.112 58.112 0 0 1-80 5.12 513.28 513.28 0 0 1-183.04-318.016 86.784 86.784 0 0 1 88.96-102.4h780.8a86.976 86.976 0 0 1 88.32 102.4 509.952 509.952 0 0 1-187.52 318.016z m0 0"  horiz-adv-x="1024" />

    
    <glyph glyph-name="shouqi" unicode="&#58891;" d="M1026.048 769.536c0-35.498667-28.672-64.170667-64.170667-64.170667h-897.706666c-35.498667 0-64.170667 28.672-64.170667 64.170667s28.672 64.170667 64.170667 64.170667h897.877333c35.328-0.170667 64-28.842667 64-64.170667z m0-384.853333c0-35.498667-28.672-64.170667-64.170667-64.170667h-897.706666c-35.498667 0-64.170667 28.672-64.170667 64.170667S28.672 448.853333 64.170667 448.853333h897.877333c35.328 0 64-28.672 64-64.170666z m0-384.853334c0-35.498667-28.672-64.170667-64.170667-64.170666h-897.706666c-35.498667 0-64.170667 28.672-64.170667 64.170666s28.672 64.170667 64.170667 64.170667h897.877333c35.328 0 64-28.672 64-64.170667z m0 0"  horiz-adv-x="1026" />

    
    <glyph glyph-name="xiugai" unicode="&#59024;" d="M723.339 485.875l-146.443 142.79-312.97-312.636-54.548-199.535v-0.33l199.199 55.415z m-23.866 265.107l-78.44-78.311 146.912-142.259 76.114 76.05c39.952 39.885 39.952 104.632 0 144.518-39.884 39.886-104.701 39.886-144.586 0.002zM155.243 81.84h718.78v-94.737h-718.78z"  horiz-adv-x="1024" />

    
    <glyph glyph-name="DataDictionary" unicode="&#58954;" d="M945.125 642.9c-7.412 10.319-18.32 17.776-31.776 23.153 0.543-12.384-0.219-22.548-2.688-30.69L749.083 103.76599999999996c-5.748-18.898-27.999-30.677-49.009-30.677h-497.11c-43.091 0-68.653 12.494-77.574 37.697-3.465 9.79-3.353 17.313 0.546 23.156 3.652 5.47 10.769 8.08 20.481 8.08H614.44c33.39 0 56.404 6.06 68.945 18.305 12.788 12.524 25.887 40.37 38.77 82.949l147.576 487.95c7.988 26.415 4.846 50.096-9.698 70.018-14.545 19.937-35.008 30.16-61.393 30.16H388.764c-4.847 0-14-1.614-27.473-4.848l0.545 1.617c-68.948 19.394-71.946-54.558-95.334-87.794-7.303-10.397-21.957-25.875-23.697-33.395-1.49-6.48 3.357-22.08 2.704-28.003-1.49-13.488-6.695-31.14-15.088-52.226-8.314-20.916-15.618-36.114-22.625-45.249l-11.84-12.385c-6.06-6.34-10.24-11.311-11.841-16.16-1.632-1.615-1.897-7.04-0.545-15.073 1.352-8.144 2.068-14.003 1.617-17.248-1.709-12.37-5.919-28.546-13.473-48.466-7.535-19.936-15.198-36.55-22.608-49.555-1.198-2.096-4.32-6.465-9.17-12.383-4.831-5.922-8.096-11.297-9.152-15.09-1.647-5.905 2.161-24.225 0-31.234-2.688-13.45-7.97-30.201-16.159-49.53-7.972-18.895-16.117-35.585-24.242-49.042-7.49-12.399-21.319-26.384-22.066-36.608-0.325-4.35 3.87-16.162 3.217-22.066l-2.144-19.952c-0.871-8.114-1.617-12.93-1.617-14.545-8.081-21.54-7.66-44.194 1.071-68.403 10.117-28.033 28.051-51.655 53.332-70.55 25.889-19.328 52.771-29.089 80.245-29.089h497.11c23.154 0 45.142 8.205 65.716 23.713 20.9 15.757 34.436 34.466 41.474 57.622l148.102 487.965c7.864 25.903 4.973 49.102-9.698 69.475zM338.681 538.4159999999999c2.969 9.077 13.473 17.232 22.61 17.232h327.47c10.224 0 14.825-8.155 11.841-17.232l-11.296-34.464c-2.984-9.077-13.473-17.233-22.626-17.233H339.21c-10.225 0-14.824 8.157-11.84 17.233l11.311 34.464z m44.69 137.878c2.985 9.077 13.474 17.233 22.626 17.233h327.47c10.243 0 14.824-8.157 11.84-17.233l-11.31-34.464c-2.968-9.075-13.474-17.248-22.611-17.248h-327.47c-10.225 0-14.824 8.175-11.84 17.248l11.296 34.464z"  horiz-adv-x="1024" />

    
    <glyph glyph-name="quanping" unicode="&#58967;" d="M863.713882 638.554353l-204.619294-205.462588a67.885176 67.885176 0 0 0-96.256 0 68.487529 68.487529 0 0 0 0 96.557176l204.67953 205.462588-18.913883 19.456h-1.566117l-1.626353 3.312942L610.966588 896H1024v-414.599529l-160.286118 157.153882zM257.505882 32.286118l18.974118-19.395765h1.566118l1.686588-3.252706 134.927059-137.577412H0v412.973177l160.888471-156.55153 205.462588 204.67953a68.668235 68.668235 0 0 0 96.617412 0 68.005647 68.005647 0 0 0 0-96.256l-205.462589-204.619294z"  horiz-adv-x="1024" />

    
    <glyph glyph-name="shaixuan" unicode="&#59102;" d="M580 25.7c12.5 0 22.7 10.1 22.7 22.5V377.4l176.2 196.3c6 6.6 7.5 16.1 3.9 24.2-3.6 8.1-11.7 13.4-20.7 13.4H261.9c-8.9 0-17-5.2-20.7-13.3-3.6-8.1-2.2-17.6 3.8-24.2l176-196.3V172c0-6.8 3.1-13.2 8.4-17.5l44.4-35.7c9.7-7.8 24-6.3 31.9 3.3 7.9 9.7 6.4 23.8-3.4 31.7l-36 29V386c0 5.5-2 10.9-5.7 15L312.5 566.2H711L563.2 401.1c-3.8-4.1-5.8-9.5-5.8-15.1v-337.9c0-12.4 10.1-22.4 22.6-22.4zM512 884c276.1 0 500-223.8 500-500 0-276.1-223.8-500-500-500-276.1 0-500 223.8-500 500C12 660.1 235.8 884 512 884z"  horiz-adv-x="1024" />

    
    <glyph glyph-name="suoxiao" unicode="&#58888;" d="M876.8 832L633.6 582.4 512 742.4V384h358.4l-153.6 115.2L960 748.8 876.8 832zM140.8-64l249.6 236.8L512 25.600000000000023V384H147.2l153.6-128L64 12.799999999999955 140.8-64z"  horiz-adv-x="1024" />

    
    <glyph glyph-name="specialDisease" unicode="&#58881;" d="M562.805 815.3025a72.135 72.135 0 0 1-96.93 0L73.925 443.13a36.1575 36.1575 0 0 1 48.42-53.7075l6.2325 5.9175V6.899999999999977a72.315 72.315 0 0 1 72.315-72.405h210.4425v217.71a50.9175 50.9175 0 0 0 50.94 50.985h99.0225a50.9175 50.9175 0 0 0 50.94-50.985v-217.71h215.4375a72.315 72.315 0 0 1 72.3375 72.405V390.5925c16.065-14.535 38.8575-13.4325 52.2225 1.4625a36.1575 36.1575 0 0 1-2.61 51.075L562.805 815.28z"  horiz-adv-x="1024" />

    
    <glyph glyph-name="shanchu" unicode="&#58965;" d="M777.309091 770.048H211.037091c-52.130909 0-94.394182-42.216727-94.394182-94.394182v-31.464727h755.153455v31.464727c0 52.130909-42.263273 94.394182-94.394182 94.394182zM612.538182 832.977455l13.870545-99.281455h-264.378182l13.870546 99.281455h236.637091zM619.985455 895.906909H368.314182c-25.972364 0-50.129455-20.992-53.76-46.731636l-18.385455-131.723637a40.029091 40.029091 0 0 1 40.680728-46.685091h314.647272a39.982545 39.982545 0 0 1 40.634182 46.778182l-18.385454 131.630546A55.947636 55.947636 0 0 1 619.985455 895.906909z m173.056-314.647273H195.258182c-34.583273 0-60.369455-28.16-57.250909-62.650181l51.572363-566.830546c3.118545-34.443636 33.978182-62.696727 68.608-62.696727h471.970909c34.583273 0 65.489455 28.206545 68.608 62.696727l51.572364 566.830546a56.599273 56.599273 0 0 1-57.250909 62.696727zM368.314182 14.987636H273.92l-31.464727 440.506182h125.858909v-440.506182z m188.788363 0H431.243636V455.447273h125.858909v-440.506182z m157.323637 0H619.985455V455.447273h125.858909l-31.464728-440.506182z"  horiz-adv-x="1024" />

    
    <glyph glyph-name="shoucang" unicode="&#59063;" d="M773.458-109.43c-14.403 0-30.592 4.132-45.599 11.638L513.567 9.39 297.948-97.618c-13.655-7.27-29.286-11.09-45.225-11.09a96.164 96.164 0 0 0-57.549 18.842c-30.177 22.64-45.64 61.85-38.502 97.561l44.099 228.772L31.744 394.004a104.059 104.059 0 0 0-26.281 100.66l0.338 1.162c12.288 36.828 42.772 62.633 79.734 67.584l234.839 42.7L425.779 820.189c16.932 33.895 51.37 55.675 87.788 55.675 37.99 0 73.318-22.6 88.13-56.29l105.068-213.4L941.64 565.11a95.672 95.672 0 0 0 78.264-68.373 98.97 98.97 0 0 0-24.474-101.002l-0.578-0.579-168.55-158.72L868.9 7.255c6.86-36.649-7.716-73.672-38.062-96.742a90.409 90.409 0 0 0-57.38-19.943z m-259.81 196.055l227.667-113.853c6.686-3.37 14.392-5.489 19.665-5.489 8.116 0 15.652 2.499 21.187 7.117l1.03 0.85c12.937 9.707 19.245 25.134 16.414 40.238l-45.814 246.804 181.212 170.65c11.126 11.28 14.93 27.433 9.995 42.286l-0.497 1.562a37.31 37.31 0 0 1-30.971 27.003l-1.034 0.163L661.76 547.79 548.91 777.01c-5.478 12.805-20.347 22.098-35.359 22.098-14.75 0-28.861-9.236-36.009-23.496L365.414 547.891l-252.062-45.788c-15.31-1.92-27.203-12.088-32.697-27.945-3.901-14.49 0.722-31.949 11.372-42.834l181.422-169.057-47.61-246.933c-2.863-14.28 3.9-30.714 16.409-40.1 6.272-4.715 14.397-7.316 22.917-7.316 6.569 0 12.866 1.531 18.294 4.45l0.783 0.46 229.407 113.797z"  horiz-adv-x="1024" />

    
    <glyph glyph-name="guanbi" unicode="&#58884;" d="M512 896C229.312 896 0 666.688 0 384s229.312-512 512-512 512 229.312 512 512S794.688 896 512 896z m210.912-713.28c-10.496-10.528-29.76-10.528-40.256 0l-161.024 161.024-161.056-161.056c-10.496-10.496-29.76-10.496-40.256 0-10.496 10.528-10.496 29.76 0 40.288L481.376 384l-161.056 161.024c-10.496 10.528-10.496 29.76 0 40.288 10.496 10.496 29.76 10.496 40.256 0l161.056-160.192 160.16 160.192c11.392 10.496 29.76 10.496 40.256 0 10.496-10.528 10.496-29.76 0-40.288L561.92 384l161.024-161.024c10.528-10.528 10.528-29.76 0-40.288z"  horiz-adv-x="1024" />

    
    <glyph glyph-name="shoucang1" unicode="&#58898;" d="M752-43.2c-9.6 0-20.8 3.2-30.4 8l-208 104-209.6-104c-20.8-11.2-48-9.6-67.2 4.8-19.2 14.4-30.4 40-25.6 64l43.2 224L89.6 411.2C72 428.8 65.6 456 72 478.4c8 24 27.2 41.6 52.8 44.8l228.8 41.6 102.4 208c11.2 22.4 33.6 36.8 57.6 36.8s48-14.4 57.6-36.8l102.4-208 228.8-40c24-3.2 44.8-20.8 51.2-44.8 8-24 1.6-49.6-16-67.2L772.8 257.6l41.6-224c4.8-25.6-6.4-49.6-25.6-64-9.6-8-22.4-12.8-36.8-12.8z"  horiz-adv-x="1024" />

    
    <glyph glyph-name="keyan" unicode="&#59411;" d="M56.634732 792.940238c24.682137-3.797252 42.409757-26.516764 42.409756-53.033528v-624.989256c0-30.292683 17.663621-56.809448 42.43109-68.17987l360.589596-162.876505-441.953184 79.550293A75.753041 75.753041 0 0 0 0.01728 39.16441299999997V739.90671C0.01728 773.996645 28.28334 796.716157 56.634732 792.940238z m441.867851-905.281907L190.946516 92.19794200000001c-21.226211 15.146342-31.82865 37.865854-31.82865 64.382618V842.176515c0 41.663106 42.431089 68.17987 77.800997 45.439025l240.378842-159.079253c14.165029-11.34909 24.767469-26.516764 24.767469-45.439025v-795.438931h-3.562591zM1004.027736 792.940238c28.330059 3.775919 56.596119-18.943594 56.596118-53.033528v-700.742297a75.753041 75.753041 0 0 0-60.073377-75.753041l-441.974516-79.550293 360.610928 162.876505c26.132773 12.607729 42.665751 39.16716 42.409757 68.17987V739.90671c0 26.516764 17.72762 49.236277 42.43109 53.033528zM562.138551-112.34166900000002L558.575961 683.075929c0 18.922261 10.623772 34.089935 24.788801 45.439025L823.722271 887.658206c35.391241 22.719512 77.800997-3.797252 77.800998-45.439025V156.58056c0-26.516764-10.602439-49.236277-31.807318-64.382618L562.138551-112.34166900000002z"  horiz-adv-x="1066" />

    
    <glyph glyph-name="xinzang" unicode="&#59027;" d="M506.88 867.328c-265.728 0-481.28-215.552-481.28-481.28s215.552-481.28 481.28-481.28 481.28 215.552 481.28 481.28-215.552 481.28-481.28 481.28z m251.904-452.096c-7.168-87.04-89.6-164.352-123.392-194.56s-128-88.064-128-88.064-97.28 59.904-138.24 97.28c-17.408 16.384-52.224 50.176-79.36 91.136l88.064-0.512 8.192-38.4 23.04 104.96 62.976-139.264 38.4 114.176 17.92-41.984h97.792c6.144-9.216 16.384-14.848 27.648-14.848 18.432 0 33.28 14.848 33.28 33.28s-14.848 33.28-33.28 33.28c-12.288 0-22.528-6.656-28.672-16.384H547.84l-43.008 85.504-41.984-111.104-59.392 147.456-27.648-121.856h-104.96c-9.216 19.456-15.36 39.936-16.384 59.904-6.144 111.616 76.288 172.032 150.016 161.792 73.216-9.728 103.424-65.536 103.424-65.536 57.856 77.312 127.488 65.024 149.504 61.44 21.504-3.584 111.104-42.496 101.376-157.696z"  horiz-adv-x="1024" />

    
    <glyph glyph-name="feiai" unicode="&#58890;" d="M400.497778 386.275556c-20.48 6.826667-43.235556 11.377778-65.991111 11.377777h-4.551111l-2.275556 11.377778c-4.551111 22.755556-22.755556 43.235556-45.511111 47.786667l2.275555-2.275556c18.204444-13.653333 27.306667-36.408889 25.031112-59.164444h-4.551112c-31.857778-6.826667-59.164444-20.48-84.195555-38.684445l36.408889 11.377778c40.96 11.377778 84.195556 9.102222 122.88-11.377778l-34.133334-56.888889c-43.235556 6.826667-88.746667-4.551111-122.88-34.133333l-20.48-15.928889 36.408889 15.928889c29.582222 13.653333 61.44 15.928889 93.297778 11.377778-25.031111-36.408889-56.888889-68.266667-91.022222-93.297778h2.275555c52.337778 13.653333 95.573333 43.235556 127.431112 86.471111 6.826667-34.133333-2.275556-70.542222-22.755556-97.848889 34.133333 27.306667 54.613333 70.542222 54.613333 113.777778v22.755556l61.44 100.124444-2.275555 77.368889-61.44-100.124444zM512 896C229.831111 896 0 666.168889 0 384S229.831111-128 512-128 1024 101.831111 1024 384 794.168889 896 512 896z m0-334.506667c0-15.928889-2.275556-31.857778-9.102222-45.511111l-9.102222-27.306666-34.133334-77.368889 2.275556-168.391111c0-63.715556-50.062222-113.777778-111.502222-116.053334H204.8c-38.684444 0-68.266667 29.582222-68.266667 68.266667v2.275555c2.275556 72.817778 25.031111 150.186667 68.266667 229.831112 43.235556 81.92 104.675556 150.186667 179.768889 207.075555 20.48 15.928889 47.786667 11.377778 63.715555-9.102222 6.826667-6.826667 9.102222-15.928889 9.102223-27.306667l2.275555-109.226666 22.755556 61.44c6.826667 25.031111 11.377778 50.062222 11.377778 77.368888V723.057778h18.204444v-161.564445zM819.2 126.862222h-145.635556-2.275555c-63.715556 0-113.777778 52.337778-111.502222 116.053334l2.275555 168.391111 65.991111-100.124445v-22.755555c0-43.235556 20.48-86.471111 54.613334-113.777778-20.48 27.306667-29.582222 63.715556-22.755556 97.848889 29.582222-43.235556 75.093333-75.093333 127.431111-86.471111h2.275556c-36.408889 25.031111-65.991111 56.888889-91.022222 93.297777 31.857778 4.551111 63.715556 2.275556 93.297777-11.377777l36.408889-15.928889-20.48 15.928889c-34.133333 27.306667-79.644444 38.684444-122.88 34.133333l-34.133333 56.888889c38.684444 18.204444 81.92 22.755556 122.88 11.377778l36.408889-11.377778c-25.031111 20.48-54.613333 34.133333-84.195556 38.684444h-4.551111c-2.275556 22.755556 6.826667 45.511111 25.031111 59.164445l2.275556 2.275555c-22.755556-6.826667-40.96-25.031111-45.511111-47.786666l-2.275556-11.377778h-4.551111c-22.755556 0-45.511111-4.551111-65.991111-11.377778l-63.715556 102.4-2.275555-77.368889-34.133334 77.368889-9.102222 27.306667c-4.551111 15.928889-9.102222 29.582222-9.102222 45.511111v159.288889h18.204444v-97.848889c0-25.031111 4.551111-52.337778 11.377778-77.368889l22.755556-61.44 2.275555 109.226667c0 9.102222 2.275556 18.204444 9.102223 27.306666 15.928889 20.48 43.235556 25.031111 63.715555 9.102223 75.093333-56.888889 136.533333-125.155556 179.768889-207.075556 43.235556-79.644444 65.991111-157.013333 68.266667-229.831111v-2.275556c0-36.408889-29.582222-65.991111-68.266667-65.991111z"  horiz-adv-x="1024" />

    
    </font>
</defs>
</svg>
